<?xml version="1.0" encoding="UTF-8" standalone="no"?>
<!-- Created with Inkscape (http://www.inkscape.org/) -->

<svg
   width="148mm"
   height="87mm"
   viewBox="0 0 148 87"
   version="1.1"
   id="svg1655"
   inkscape:version="1.2.1 (9c6d41e410, 2022-07-14)"
   sodipodi:docname="img-login.svg"
   xmlns:inkscape="http://www.inkscape.org/namespaces/inkscape"
   xmlns:sodipodi="http://sodipodi.sourceforge.net/DTD/sodipodi-0.dtd"
   xmlns="http://www.w3.org/2000/svg"
   xmlns:svg="http://www.w3.org/2000/svg">
  <sodipodi:namedview
     id="namedview1657"
     pagecolor="#ffffff"
     bordercolor="#000000"
     borderopacity="0.25"
     inkscape:showpageshadow="2"
     inkscape:pageopacity="0.0"
     inkscape:pagecheckerboard="0"
     inkscape:deskcolor="#d1d1d1"
     inkscape:document-units="mm"
     showgrid="false"
     inkscape:zoom="1.3772587"
     inkscape:cx="376.10944"
     inkscape:cy="284.26032"
     inkscape:window-width="1871"
     inkscape:window-height="1008"
     inkscape:window-x="609"
     inkscape:window-y="29"
     inkscape:window-maximized="0"
     inkscape:current-layer="g302" />
  <defs
     id="defs1652">
    <clipPath
       clipPathUnits="userSpaceOnUse"
       id="clipPath294">
      <path
         d="M 0,500 H 750 V 0 H 0 Z"
         id="path292" />
    </clipPath>
    <clipPath
       clipPathUnits="userSpaceOnUse"
       id="clipPath306">
      <path
         d="M 0,500 H 750 V 0 H 0 Z"
         id="path304" />
    </clipPath>
    <clipPath
       clipPathUnits="userSpaceOnUse"
       id="clipPath334">
      <path
         d="m 50.1251,130.01 h 24.657 V 63.9212 h -24.657 z"
         id="path332" />
    </clipPath>
    <clipPath
       clipPathUnits="userSpaceOnUse"
       id="clipPath350">
      <path
         d="m 60.1009,126.725 h 24.657 V 60.6365 h -24.657 z"
         id="path348" />
    </clipPath>
    <clipPath
       clipPathUnits="userSpaceOnUse"
       id="clipPath366">
      <path
         d="M 70.69,123.59 H 95.3469 V 57.5013 H 70.69 Z"
         id="path364" />
    </clipPath>
    <clipPath
       clipPathUnits="userSpaceOnUse"
       id="clipPath446">
      <path
         d="M 0,500 H 750 V 0 H 0 Z"
         id="path444" />
    </clipPath>
    <clipPath
       clipPathUnits="userSpaceOnUse"
       id="clipPath518">
      <path
         d="m 614.306,427.868 h 61.032 v -16.817 h -61.032 z"
         id="path516" />
    </clipPath>
    <clipPath
       clipPathUnits="userSpaceOnUse"
       id="clipPath538">
      <path
         d="m 641.13,409.653 h 39.009 V 379.116 H 641.13 Z"
         id="path536" />
    </clipPath>
    <clipPath
       clipPathUnits="userSpaceOnUse"
       id="clipPath660">
      <path
         d="m 283.139,240.743 h 93.018 v -65.178 h -93.018 z"
         id="path658" />
    </clipPath>
    <clipPath
       clipPathUnits="userSpaceOnUse"
       id="clipPath676">
      <path
         d="M 280.182,219.585 H 384.703 V 154.683 H 280.182 Z"
         id="path674" />
    </clipPath>
    <clipPath
       clipPathUnits="userSpaceOnUse"
       id="clipPath696">
      <path
         d="M 457.352,252.396 H 644.56 V 54.843 H 457.352 Z"
         id="path694" />
    </clipPath>
    <clipPath
       clipPathUnits="userSpaceOnUse"
       id="clipPath760">
      <path
         d="m 650.521,156.749 h 45.261 v -12.753 h -45.261 z"
         id="path758" />
    </clipPath>
    <clipPath
       clipPathUnits="userSpaceOnUse"
       id="clipPath776">
      <path
         d="m 398.595,345.864 h 41.008 v -26.812 h -41.008 z"
         id="path774" />
    </clipPath>
    <filter
       style="color-interpolation-filters:sRGB;"
       inkscape:label="Color Shift"
       id="filter4787"
       x="0"
       y="0"
       width="1"
       height="1">
      <feColorMatrix
         type="hueRotate"
         values="221"
         result="color1"
         id="feColorMatrix4783" />
      <feColorMatrix
         type="saturate"
         values="1"
         result="color2"
         id="feColorMatrix4785" />
    </filter>
    <filter
       style="color-interpolation-filters:sRGB;"
       inkscape:label="Color Shift"
       id="filter4793"
       x="-5.7415819e-16"
       y="0"
       width="1"
       height="1">
      <feColorMatrix
         type="hueRotate"
         values="221"
         result="color1"
         id="feColorMatrix4789" />
      <feColorMatrix
         type="saturate"
         values="1"
         result="color2"
         id="feColorMatrix4791" />
    </filter>
    <filter
       style="color-interpolation-filters:sRGB;"
       inkscape:label="Color Shift"
       id="filter5031"
       x="-2.193383e-16"
       y="0"
       width="1"
       height="1">
      <feColorMatrix
         type="hueRotate"
         values="221"
         result="color1"
         id="feColorMatrix5027" />
      <feColorMatrix
         type="saturate"
         values="1"
         result="color2"
         id="feColorMatrix5029" />
    </filter>
    <filter
       style="color-interpolation-filters:sRGB;"
       inkscape:label="Color Shift"
       id="filter5037"
       x="8.2987103e-16"
       y="-5.7959966e-16"
       width="1"
       height="1">
      <feColorMatrix
         type="hueRotate"
         values="221"
         result="color1"
         id="feColorMatrix5033" />
      <feColorMatrix
         type="saturate"
         values="1"
         result="color2"
         id="feColorMatrix5035" />
    </filter>
    <filter
       style="color-interpolation-filters:sRGB;"
       inkscape:label="Color Shift"
       id="filter5281"
       x="-1.0689815e-16"
       y="0"
       width="1"
       height="1">
      <feColorMatrix
         type="hueRotate"
         values="221"
         result="color1"
         id="feColorMatrix5277" />
      <feColorMatrix
         type="saturate"
         values="1"
         result="color2"
         id="feColorMatrix5279" />
    </filter>
    <filter
       style="color-interpolation-filters:sRGB;"
       inkscape:label="Color Shift"
       id="filter5528"
       x="0"
       y="0"
       width="1"
       height="1">
      <feColorMatrix
         type="hueRotate"
         values="221"
         result="color1"
         id="feColorMatrix5524" />
      <feColorMatrix
         type="saturate"
         values="1"
         result="color2"
         id="feColorMatrix5526" />
    </filter>
  </defs>
  <g
     inkscape:label="Camada 1"
     inkscape:groupmode="layer"
     id="layer1">
    <g
       id="g1414"
       transform="matrix(0.61336748,0,0,0.61336748,-141.91746,-12.506827)">
      <g
         id="g302"
         clip-path="url(#clipPath306)"
         transform="matrix(0.35277776,0,0,-0.35277778,220,176.38889)">
        <g
           id="g308"
           transform="translate(87.0154,160.933)">
          <path
             d="m 0,0 c 0.277,0.838 31.435,102.695 31.435,102.695 l -0.78,12.649 8.149,13.418 L 48.926,125.42 47.541,110.378 40.347,99.442 8.96,-2.895 Z"
             style="fill:#e1e1e1;fill-opacity:1;fill-rule:nonzero;stroke:none"
             id="path310" />
        </g>
        <g
           id="g312"
           transform="translate(87.0154,160.933)">
          <path
             d="m 0,0 c 0,0 0.21,-0.056 0.601,-0.176 0.404,-0.125 0.979,-0.303 1.731,-0.536 1.525,-0.48 3.757,-1.183 6.656,-2.096 l -0.115,-0.06 c 5.069,16.618 16.793,55.055 31.23,102.384 l 0.011,0.035 0.02,0.031 c 2.278,3.466 4.717,7.176 7.191,10.938 l -0.042,-0.118 c 0.442,4.798 0.91,9.888 1.384,15.042 l 0.177,-0.271 c -0.263,0.087 -0.55,0.181 -0.836,0.276 -3.122,1.031 -6.219,2.054 -9.285,3.067 l 0.303,0.112 c -2.77,-4.559 -5.493,-9.041 -8.151,-13.417 l 0.036,0.149 c 0.264,-4.313 0.523,-8.534 0.775,-12.65 l 0.002,-0.045 -0.013,-0.044 C 22.568,73.03 14.681,47.401 9.065,29.154 6.241,20.03 3.989,12.755 2.438,7.743 1.66,5.249 1.058,3.322 0.646,2 0.441,1.355 0.284,0.861 0.174,0.512 0.065,0.176 0,0 0,0 c 0,0 0.039,0.163 0.134,0.492 0.101,0.345 0.245,0.833 0.433,1.469 0.394,1.315 0.97,3.232 1.714,5.713 1.516,5.009 3.717,12.28 6.476,21.398 5.573,18.304 13.4,44.013 22.438,73.696 l -0.011,-0.089 c -0.255,4.116 -0.517,8.336 -0.785,12.649 l -0.004,0.08 0.041,0.069 c 2.657,4.377 5.378,8.86 8.146,13.42 l 0.107,0.177 0.197,-0.065 c 3.066,-1.012 6.163,-2.035 9.285,-3.066 0.287,-0.094 0.573,-0.189 0.837,-0.276 l 0.196,-0.065 -0.019,-0.206 c -0.475,-5.154 -0.944,-10.243 -1.386,-15.041 l -0.006,-0.065 -0.036,-0.054 c -2.475,-3.761 -4.917,-7.47 -7.197,-10.934 l 0.031,0.065 C 26.01,52.082 14.168,13.681 9.048,-2.922 L 9.02,-3.012 8.932,-2.982 C 6.025,-2.019 3.787,-1.277 2.257,-0.771 1.519,-0.522 0.956,-0.333 0.56,-0.199 0.181,-0.071 0,0 0,0"
             style="fill:#1a2e35;fill-opacity:1;fill-rule:nonzero;stroke:none"
             id="path314" />
        </g>
        <g
           id="g316"
           transform="translate(79.4942,155.9816)"
           style="filter:url(#filter5528)">
          <path
             d="m 0,0 -13.994,-18.923 -19.57,-70.987 c 0,0 -2.814,-14.479 13.181,-18.593 17.96,-4.62 22.103,9.138 22.103,9.138 l 19.028,69.33 -0.285,24.06 4.697,5.289 c 0.945,1.064 0.492,2.748 -0.859,3.194 L 1.83,9.929 C 0.472,10.377 -0.899,9.282 -0.761,7.858 Z"
             style="fill:#ff735d;fill-opacity:1;fill-rule:nonzero;stroke:none"
             id="path318" />
        </g>
        <g
           id="g320"
           transform="translate(100.116,149.1694)">
          <path
             d="m 0,0 c -0.043,-0.137 -4.753,1.235 -10.518,3.065 -5.768,1.83 -10.406,3.424 -10.363,3.561 0.044,0.138 4.753,-1.235 10.52,-3.065 C -4.596,1.732 0.044,0.137 0,0"
             style="fill:#1a2e35;fill-opacity:1;fill-rule:nonzero;stroke:none"
             id="path322" />
        </g>
        <g
           id="g324"
           transform="translate(100.2423,125.9463)">
          <path
             d="m 0,0 c -0.009,-0.035 -0.507,0.055 -1.402,0.247 -0.896,0.191 -2.185,0.495 -3.772,0.894 -3.174,0.798 -7.534,2.005 -12.292,3.523 -4.76,1.521 -9.013,3.064 -12.062,4.254 -1.525,0.594 -2.751,1.093 -3.591,1.457 -0.841,0.361 -1.3,0.577 -1.286,0.611 0.013,0.033 0.496,-0.119 1.359,-0.423 0.955,-0.34 2.179,-0.777 3.647,-1.3 3.077,-1.1 7.341,-2.585 12.091,-4.103 4.749,-1.515 9.084,-2.776 12.229,-3.663 1.5,-0.424 2.751,-0.778 3.726,-1.053 C -0.474,0.191 0.008,0.035 0,0"
             style="fill:#1a2e35;fill-opacity:1;fill-rule:nonzero;stroke:none"
             id="path326" />
        </g>
        <g
           id="g328">
          <g
             id="g330" />
          <g
             id="g342">
            <g
               clip-path="url(#clipPath334)"
               opacity="0.300003"
               id="g340">
              <g
                 transform="translate(52.9717,64.058)"
                 id="g338">
                <path
                   d="M 0,0 -0.48,0.142 C -2.229,0.66 -3.228,2.498 -2.71,4.247 l 17.569,59.339 c 0.518,1.749 2.356,2.747 4.105,2.229 l 0.48,-0.142 c 1.749,-0.518 2.748,-2.356 2.23,-4.105 L 4.105,2.229 C 3.587,0.48 1.749,-0.518 0,0"
                   style="fill:#000000;fill-opacity:1;fill-rule:nonzero;stroke:none"
                   id="path336" />
              </g>
            </g>
          </g>
        </g>
        <g
           id="g344">
          <g
             id="g346" />
          <g
             id="g358">
            <g
               clip-path="url(#clipPath350)"
               opacity="0.300003"
               id="g356">
              <g
                 transform="translate(62.9474,60.7733)"
                 id="g354">
                <path
                   d="M 0,0 -0.48,0.142 C -2.229,0.66 -3.228,2.498 -2.71,4.247 l 17.569,59.339 c 0.518,1.749 2.356,2.747 4.105,2.229 l 0.48,-0.142 c 1.749,-0.518 2.748,-2.356 2.23,-4.105 L 4.105,2.23 C 3.587,0.48 1.749,-0.518 0,0"
                   style="fill:#000000;fill-opacity:1;fill-rule:nonzero;stroke:none"
                   id="path352" />
              </g>
            </g>
          </g>
        </g>
        <g
           id="g360">
          <g
             id="g362" />
          <g
             id="g374">
            <g
               clip-path="url(#clipPath366)"
               opacity="0.300003"
               id="g372">
              <g
                 transform="translate(73.5365,57.6381)"
                 id="g370">
                <path
                   d="M 0,0 -0.48,0.142 C -2.229,0.66 -3.228,2.498 -2.71,4.247 l 17.569,59.339 c 0.518,1.749 2.356,2.747 4.105,2.229 l 0.48,-0.142 c 1.749,-0.518 2.747,-2.356 2.23,-4.105 L 4.105,2.229 C 3.587,0.48 1.749,-0.518 0,0"
                   style="fill:#000000;fill-opacity:1;fill-rule:nonzero;stroke:none"
                   id="path368" />
              </g>
            </g>
          </g>
        </g>
        <g
           id="g376"
           transform="translate(127.2664,260.4037)">
          <path
             d="M 0,0 C -0.047,-0.136 -2.041,0.43 -4.454,1.265 -6.867,2.099 -8.785,2.886 -8.738,3.022 -8.691,3.158 -6.697,2.591 -4.284,1.757 -1.871,0.923 0.047,0.136 0,0"
             style="fill:#1a2e35;fill-opacity:1;fill-rule:nonzero;stroke:none"
             id="path378" />
        </g>
        <g
           id="g380"
           transform="translate(135.9416,286.3529)">
          <path
             d="m 0,0 c 0.03,-0.009 -0.096,-0.504 -0.352,-1.402 -0.289,-0.972 -0.67,-2.257 -1.136,-3.825 -1.031,-3.319 -2.431,-7.826 -4.026,-12.958 l -0.078,-0.251 -0.249,0.087 c -1.486,0.518 -3.027,1.055 -4.606,1.605 -1.631,0.572 -3.22,1.13 -4.746,1.665 l -0.226,0.08 0.065,0.228 c 1.446,5.14 2.715,9.647 3.649,12.965 0.459,1.556 0.835,2.83 1.119,3.793 0.272,0.885 0.434,1.364 0.464,1.356 0.03,-0.009 -0.074,-0.503 -0.292,-1.403 -0.248,-0.974 -0.574,-2.261 -0.973,-3.833 -0.89,-3.33 -2.098,-7.854 -3.476,-13.012 l -0.162,0.307 c 1.527,-0.532 3.118,-1.086 4.749,-1.654 1.578,-0.554 3.118,-1.094 4.603,-1.615 L -6,-18.031 c 1.662,5.111 3.122,9.599 4.197,12.904 0.525,1.55 0.955,2.819 1.281,3.779 C -0.213,-0.467 -0.03,0.009 0,0"
             style="fill:#1a2e35;fill-opacity:1;fill-rule:nonzero;stroke:none"
             id="path382" />
        </g>
      </g>
      <g
         id="g442"
         clip-path="url(#clipPath446)"
         transform="matrix(0.35277776,0,0,-0.35277778,220,176.38889)">
        <g
           id="g448"
           transform="translate(644.3366,325.543)">
          <path
             d="m 0,0 c 6.778,8.154 13.546,16.394 18.82,25.593 5.274,9.199 9.029,19.483 9.277,30.083 0.037,1.607 -0.656,12.765 -2.201,13.21 -1.104,0.319 -1.862,-9.53 -2.767,-10.238 C 14.496,51.889 8.884,41.858 5.657,31.38 2.43,20.901 0.903,10.927 0,0"
             style="fill:#1a2e35;fill-opacity:1;fill-rule:nonzero;stroke:none"
             id="path450" />
        </g>
        <g
           id="g452"
           transform="translate(556.1532,263.5188)">
          <path
             d="m 0,0 c 2.7,6.986 15.985,41.96 15.932,41.981 0,0 -22.911,11.925 -15.046,36.202 3.8,11.726 13.589,35.239 22.695,56.414 9.787,22.76 35.417,34.176 58.889,26.25 l 2.332,-0.787 c 24.656,-9.963 29.97,-36.47 19.328,-60.842 L 55.163,-14.281 12.227,-1.009 Z"
             style="fill:#ffc19d;fill-opacity:1;fill-rule:nonzero;stroke:none"
             id="path454" />
        </g>
        <g
           id="g456"
           transform="translate(572.085,305.4994)">
          <path
             d="m 0,0 c 0,0 14.937,-6.04 34.62,-1.323 0,0 -13.622,-15.389 -37.011,-5.066 z"
             style="fill:#ff9c6a;fill-opacity:1;fill-rule:nonzero;stroke:none"
             id="path458" />
        </g>
        <g
           id="g460"
           transform="translate(579.7272,374.7698)">
          <path
             d="m 0,0 c -0.681,-1.801 0.284,-3.863 2.153,-4.608 1.865,-0.742 3.929,0.11 4.61,1.912 C 7.443,-0.895 6.479,1.168 4.614,1.912 2.747,2.657 0.68,1.801 0,0"
             style="fill:#1a2e35;fill-opacity:1;fill-rule:nonzero;stroke:none"
             id="path462" />
        </g>
        <g
           id="g464"
           transform="translate(581.5132,386.3369)">
          <path
             d="m 0,0 c 0.276,-0.595 3.545,0.458 7.257,-0.807 3.726,-1.209 5.808,-4.041 6.364,-3.722 0.266,0.134 0.105,1.095 -0.791,2.36 C 11.952,-0.914 10.242,0.596 7.924,1.368 5.605,2.136 3.371,1.942 1.957,1.448 0.519,0.956 -0.143,0.273 0,0"
             style="fill:#1a2e35;fill-opacity:1;fill-rule:nonzero;stroke:none"
             id="path466" />
        </g>
        <g
           id="g468"
           transform="translate(612.3203,361.6648)">
          <path
             d="m 0,0 c -0.68,-1.801 0.284,-3.863 2.153,-4.607 1.864,-0.744 3.929,0.108 4.61,1.911 C 7.442,-0.895 6.478,1.168 4.614,1.912 2.745,2.657 0.68,1.801 0,0"
             style="fill:#1a2e35;fill-opacity:1;fill-rule:nonzero;stroke:none"
             id="path470" />
        </g>
        <g
           id="g472"
           transform="translate(617.397,372.5453)">
          <path
             d="m 0,0 c 0.276,-0.595 3.549,0.456 7.258,-0.808 3.725,-1.21 5.807,-4.042 6.364,-3.723 0.265,0.135 0.108,1.093 -0.792,2.36 C 11.953,-0.916 10.242,0.594 7.924,1.367 5.606,2.135 3.372,1.94 1.958,1.447 0.523,0.955 -0.141,0.272 0,0"
             style="fill:#1a2e35;fill-opacity:1;fill-rule:nonzero;stroke:none"
             id="path474" />
        </g>
        <g
           id="g476"
           transform="translate(594.4298,348.4981)">
          <path
             d="m 0,0 c 0.089,0.205 -2.086,1.384 -5.666,3.126 -0.916,0.418 -1.751,0.91 -1.692,1.611 0.008,0.761 0.751,1.65 1.583,2.599 1.668,1.995 3.414,4.085 5.245,6.276 7.37,8.97 13.046,16.474 12.682,16.768 C 11.788,30.674 5.52,23.642 -1.849,14.672 -3.644,12.452 -5.357,10.338 -6.991,8.313 -7.713,7.355 -8.745,6.341 -8.74,4.755 -8.725,3.96 -8.202,3.21 -7.649,2.842 -7.104,2.45 -6.573,2.26 -6.114,2.073 -2.416,0.599 -0.086,-0.207 0,0"
             style="fill:#1a2e35;fill-opacity:1;fill-rule:nonzero;stroke:none"
             id="path478" />
        </g>
        <g
           id="g480"
           transform="translate(604.496,342.2358)">
          <path
             d="m 0,0 c -0.593,0.239 -1.962,-3.791 -6.38,-5.487 -4.416,-1.709 -8.561,0.196 -8.783,-0.357 -0.142,-0.234 0.693,-1.107 2.49,-1.769 1.759,-0.662 4.552,-0.968 7.255,0.07 2.698,1.044 4.395,3.08 5.091,4.688 C 0.396,-1.221 0.284,-0.07 0,0"
             style="fill:#1a2e35;fill-opacity:1;fill-rule:nonzero;stroke:none"
             id="path482" />
        </g>
        <g
           id="g484"
           transform="translate(622.6926,387.5521)">
          <path
             d="m 0,0 c 0.025,-1.134 3.896,-1.908 8.078,-3.905 4.221,-1.913 7.305,-4.376 8.19,-3.666 0.404,0.347 0.112,1.504 -0.979,2.962 C 14.21,-3.158 12.276,-1.47 9.758,-0.295 7.238,0.874 4.701,1.268 2.896,1.158 1.078,1.054 0.004,0.532 0,0"
             style="fill:#1a2e35;fill-opacity:1;fill-rule:nonzero;stroke:none"
             id="path486" />
        </g>
        <g
           id="g488"
           transform="translate(587.2187,398.1685)">
          <path
             d="m 0,0 c 0.369,-1.064 3.224,-1.053 6.315,-2.051 3.126,-0.89 5.492,-2.486 6.39,-1.806 0.407,0.339 0.283,1.323 -0.586,2.506 -0.853,1.175 -2.511,2.46 -4.647,3.11 C 5.335,2.406 3.244,2.26 1.881,1.757 0.501,1.257 -0.149,0.509 0,0"
             style="fill:#1a2e35;fill-opacity:1;fill-rule:nonzero;stroke:none"
             id="path490" />
        </g>
        <g
           id="g492"
           transform="translate(652.2639,345.5025)">
          <path
             d="M 0,0 C 0.473,0.039 18.271,-0.696 12.162,-17.046 6.052,-33.396 -9.102,-23.89 -8.956,-23.41 -8.809,-22.931 0,0 0,0"
             style="fill:#ffc19d;fill-opacity:1;fill-rule:nonzero;stroke:none"
             id="path494" />
        </g>
        <g
           id="g496"
           transform="translate(650.6169,326.4199)">
          <path
             d="M 0,0 C 0.092,0.026 0.211,-0.305 0.61,-0.706 0.998,-1.096 1.75,-1.546 2.722,-1.545 4.686,-1.557 7.165,0.642 8.346,3.559 8.943,5.031 9.161,6.565 9.072,7.935 9.02,9.318 8.559,10.442 7.747,10.922 6.956,11.445 6.146,11.155 5.774,10.769 5.384,10.394 5.366,10.029 5.269,10.033 5.208,10.009 5.02,10.438 5.404,11.064 c 0.189,0.3 0.525,0.614 1.026,0.784 0.512,0.173 1.15,0.12 1.731,-0.172 C 9.389,11.118 10.091,9.534 10.189,8.03 10.355,6.493 10.145,4.757 9.474,3.103 8.138,-0.152 5.299,-2.605 2.681,-2.405 1.419,-2.275 0.589,-1.57 0.237,-0.999 -0.118,-0.406 -0.068,-0.008 0,0"
             style="fill:#ff9c6a;fill-opacity:1;fill-rule:nonzero;stroke:none"
             id="path498" />
        </g>
        <g
           id="g500"
           transform="translate(600.6361,421.0653)">
          <path
             d="M 0,0 C -2.079,2.467 9.113,7.971 16.722,8.424 28.223,9.109 44.23,6.106 52.279,0.079 c 9.69,-7.255 16.648,-16.132 18.309,-28.123 1.661,-11.992 -0.711,-24.31 -5.364,-35.487 -1.419,-3.409 -3.156,-6.865 -6.116,-9.074 -3.659,-2.729 -8.896,-3.323 -10.612,-8.366 -0.627,-1.843 -1.849,-3.478 -3.602,-4.324 -4.198,-2.029 -6.702,2.351 -7.233,5.983 -1.132,7.757 1.393,15.53 3.884,22.963 1.771,5.283 3.597,10.672 6.978,15.102 1.839,2.41 4.105,4.485 5.808,6.993 1.703,2.509 2.82,5.669 1.967,8.579 -0.139,0.473 -0.422,1.112 -0.81,1.847 -3.062,5.815 -9.058,9.505 -15.628,9.679 -10.422,0.275 -27.953,1.44 -30.851,6.124 C 4.84,-1.285 4.553,2.177 4.553,2.177 Z"
             style="fill:#1a2e35;fill-opacity:1;fill-rule:nonzero;stroke:none"
             id="path502" />
        </g>
        <g
           id="g504"
           transform="translate(655.0314,431.1184)"
           style="filter:url(#filter5031)">
          <path
             d="m 0,0 c 1.048,-0.532 25.62,-15.713 25.457,-37.85 -0.162,-22.137 -4.212,-27.559 -4.212,-27.559 0,0 1.222,-1.47 1.958,-3.348 0.66,-1.683 -3.109,-7.38 -6.344,-5.479 -22.061,20.469 -52.462,32.223 -87.143,42.962 l -26.162,9.364 c -7.651,1.676 -9.562,4.517 -5.823,5.296 2.866,0.597 26.626,1.798 26.626,1.798 l 5.132,1.58 16.025,11.312 c 0,0 -0.62,2.554 2.633,3.385 C -48.6,2.292 -20.693,10.501 0,0"
             style="fill:#ff735d;fill-opacity:1;fill-rule:nonzero;stroke:none"
             id="path506" />
        </g>
        <g
           id="g508"
           transform="translate(584.52,417.882)">
          <path
             d="m 0,0 c 0,0 0.348,-0.139 1.022,-0.36 0.805,-0.257 1.78,-0.569 2.955,-0.944 2.581,-0.767 6.257,-2.066 10.772,-3.731 8.984,-3.431 21.174,-8.873 33.751,-16.476 12.628,-7.52 23.357,-15.431 31.017,-21.26 3.839,-2.908 6.896,-5.327 9.02,-6.982 0.974,-0.758 1.782,-1.387 2.449,-1.906 0.562,-0.432 0.873,-0.64 0.873,-0.64 0,0 -0.271,0.258 -0.815,0.713 -0.651,0.538 -1.441,1.189 -2.393,1.975 -2.09,1.699 -5.117,4.158 -8.933,7.102 -7.612,5.9 -18.326,13.864 -30.979,21.399 C 36.138,-13.492 23.894,-8.083 14.865,-4.725 5.803,-1.417 0,0 0,0"
             style="fill:#1a2e35;fill-opacity:1;fill-rule:nonzero;stroke:none"
             id="path510" />
        </g>
        <g
           id="g512">
          <g
             id="g514" />
          <g
             id="g526">
            <g
               clip-path="url(#clipPath518)"
               opacity="0.300003"
               id="g524">
              <g
                 transform="translate(675.3376,411.0512)"
                 id="g522">
                <path
                   d="m 0,0 c 0,0 -27.116,14.516 -42.097,12.755 0.583,0.08 1.167,0.159 1.75,0.238 -4.662,-0.388 -9.323,-0.776 -13.985,-1.164 -2.361,-0.197 -5.075,-0.267 -6.7,1.457 0,0 8.492,3.599 21.9,3.53 C -25.724,16.747 -6.048,11.937 0,0"
                   style="fill:#000000;fill-opacity:1;fill-rule:nonzero;stroke:none"
                   id="path520" />
              </g>
            </g>
          </g>
        </g>
        <g
           id="g528"
           transform="translate(675.7034,410.7568)">
          <path
             d="m 0,0 c 0,0 -0.61,0.992 -1.993,2.57 -1.377,1.574 -3.515,3.765 -6.577,5.944 -3.037,2.201 -6.998,4.379 -11.698,5.993 -4.671,1.611 -10.155,2.766 -15.901,2.208 -2.863,-0.242 -5.607,-0.807 -8.241,-1.358 -2.626,-0.598 -5.178,-1.041 -7.58,-1.709 -2.385,-0.669 -4.617,-1.407 -6.787,-1.616 -2.177,-0.305 -4.16,0.218 -5.932,0.789 -7.09,2.329 -10.921,5.278 -10.449,5.616 0.005,0.018 -0.02,-0.332 0.372,-0.751 0.385,-0.4 1.018,-0.931 1.916,-1.474 1.786,-1.101 4.503,-2.489 8.058,-3.704 1.755,-0.594 3.848,-1.158 6.074,-0.861 2.224,0.198 4.491,0.934 6.862,1.587 2.367,0.646 4.939,1.085 7.56,1.675 2.631,0.545 5.359,1.102 8.187,1.341 5.667,0.551 11.074,-0.574 15.722,-2.151 4.666,-1.577 8.608,-3.705 11.646,-5.854 3.063,-2.128 5.22,-4.267 6.633,-5.797 C -1.422,1.68 -0.897,1.063 -0.556,0.632 -0.204,0.209 0,0 0,0"
             style="fill:#1a2e35;fill-opacity:1;fill-rule:nonzero;stroke:none"
             id="path530" />
        </g>
        <g
           id="g532">
          <g
             id="g534" />
          <g
             id="g546">
            <g
               clip-path="url(#clipPath538)"
               opacity="0.300003"
               id="g544">
              <g
                 transform="translate(680.1386,384.1221)"
                 id="g542">
                <path
                   d="m 0,0 c -5.135,1.805 -8.581,4.482 -13.307,7.356 -5.036,3.062 -10.107,5.859 -14.991,9.158 -3.706,2.504 -8.199,5.149 -9.848,9.017 -1.12,-2.002 -1.146,-4.156 -0.096,-6.195 1.049,-2.039 5.507,-5.57 7.404,-6.859 C -20.029,5.129 -12.516,0.108 -0.435,-5.006 -0.104,-3.693 0,0 0,0"
                   style="fill:#000000;fill-opacity:1;fill-rule:nonzero;stroke:none"
                   id="path540" />
              </g>
            </g>
          </g>
        </g>
        <g
           id="g548"
           transform="translate(680.4043,395.7227)"
           style="filter:url(#filter5037)">
          <path
             d="m 0,0 c 2.775,-2.535 4.448,-4.176 3.588,-6.986 -0.716,-2.339 -2.157,-5.006 -4.574,-4.628 -0.737,0.116 -1.4,0.5 -2.044,0.877 -11.024,6.457 -22.049,12.914 -33.073,19.371 -1.119,0.655 -2.32,1.407 -2.746,2.631 -0.656,1.883 0.987,3.94 2.91,4.463 1.923,0.523 3.958,-0.048 5.855,-0.661 C -19.303,11.582 -9.471,6.22 0,0"
             style="fill:#ff735d;fill-opacity:1;fill-rule:nonzero;stroke:none"
             id="path550" />
        </g>
        <g
           id="g552"
           transform="translate(641.923,406.2791)">
          <path
             d="m 0,0 c 0.068,0.02 -0.486,0.605 -0.423,1.878 0.052,1.197 0.891,3.161 3,3.982 2.122,0.719 4.934,0.237 7.69,-0.875 2.801,-1.122 5.87,-2.398 9.037,-3.845 6.351,-2.873 11.837,-6.019 15.571,-8.642 1.883,-1.289 3.337,-2.43 4.34,-3.221 0.408,-0.33 0.785,-0.634 1.144,-0.924 0.265,-0.207 0.41,-0.311 0.421,-0.299 0.01,0.012 -0.113,0.139 -0.359,0.37 -0.342,0.311 -0.701,0.638 -1.09,0.993 -0.97,0.836 -2.398,2.022 -4.265,3.352 -3.703,2.703 -9.197,5.914 -15.568,8.795 C 16.319,3.017 13.243,4.283 10.423,5.387 7.609,6.49 4.718,6.977 2.459,6.169 0.207,5.236 -0.602,3.143 -0.605,1.884 -0.615,1.226 -0.444,0.733 -0.295,0.427 -0.124,0.13 -0.009,-0.007 0,0"
             style="fill:#1a2e35;fill-opacity:1;fill-rule:nonzero;stroke:none"
             id="path554" />
        </g>
        <g
           id="g556"
           transform="translate(595.5163,425.6437)">
          <path
             d="m 0,0 22.516,-7.212 -4.052,-5.652 -24.132,8.863 z"
             style="fill:#ffffff;fill-opacity:1;fill-rule:nonzero;stroke:none"
             id="path558" />
        </g>
        <g
           id="g560"
           transform="translate(622.5164,394.1908)">
          <path
             d="m 0,0 c 0.058,0.115 -9.421,4.962 -21.168,10.824 -11.751,5.864 -21.32,10.522 -21.378,10.407 -0.058,-0.115 9.419,-4.961 21.17,-10.825 C -9.629,4.544 -0.057,-0.116 0,0"
             style="fill:#1a2e35;fill-opacity:1;fill-rule:nonzero;stroke:none"
             id="path562" />
        </g>
        <g
           id="g564"
           transform="translate(628.1944,272.8721)"
           style="filter:url(#filter4787)">
          <path
             d="m 0,0 0.295,14.781 -50.58,-18.789 c 0,0 -9.347,30.365 -9.347,31.798 l -11.209,-7.045 -18.63,8.01 -18.63,9.207 -37.683,-65.955 -39.529,-116.563 93.154,-62.12 69.06,74.011 41.983,63.974 23.084,40.523 z"
             style="fill:#ff735d;fill-opacity:1;fill-rule:nonzero;stroke:none"
             id="path566" />
        </g>
        <g
           id="g568"
           transform="translate(573.413,269.0783)">
          <path
             d="M 0,0 C -0.03,0 -0.056,0.517 -0.078,1.478 -0.091,2.513 -0.108,3.902 -0.13,5.623 L 0.099,5.478 C -3.771,3.601 -9.592,0.219 -15.132,-4.952 l -0.405,-0.377 -0.031,0.553 c -0.037,0.658 -0.077,1.359 -0.117,2.068 -0.405,7.249 -0.743,13.813 -0.962,18.566 -0.096,2.32 -0.174,4.225 -0.232,5.63 -0.015,0.617 -0.027,1.123 -0.037,1.532 -0.003,0.351 0.005,0.535 0.022,0.536 0.018,10e-4 0.046,-0.182 0.083,-0.53 0.036,-0.408 0.08,-0.912 0.134,-1.527 0.099,-1.403 0.234,-3.304 0.398,-5.62 0.312,-4.748 0.709,-11.309 1.114,-18.558 0.04,-0.709 0.079,-1.41 0.115,-2.068 l -0.435,0.176 c 5.597,5.207 11.51,8.554 15.447,10.338 L 0.196,5.873 0.19,5.621 C 0.15,3.9 0.118,2.512 0.094,1.477 0.062,0.516 0.03,0 0,0"
             style="fill:#1a2e35;fill-opacity:1;fill-rule:nonzero;stroke:none"
             id="path570" />
        </g>
        <g
           id="g572"
           transform="translate(623.5296,272.1614)">
          <path
             d="m 0,0 c 0.007,-0.016 -0.191,-0.124 -0.576,-0.313 -0.437,-0.207 -0.998,-0.474 -1.694,-0.804 -1.539,-0.705 -3.665,-1.678 -6.268,-2.87 -5.366,-2.4 -12.68,-5.671 -20.761,-9.286 -3.461,-1.529 -6.782,-2.995 -9.863,-4.356 l -0.421,-0.186 0.079,0.452 c 0.99,5.633 1.192,10.601 1.152,14.233 l 0.235,-0.141 c -1.959,-0.952 -3.529,-1.715 -4.669,-2.269 -0.509,-0.237 -0.922,-0.43 -1.25,-0.583 -0.286,-0.127 -0.437,-0.187 -0.444,-0.173 -0.007,0.013 0.131,0.1 0.403,0.253 0.319,0.173 0.719,0.39 1.212,0.658 1.124,0.587 2.672,1.395 4.602,2.402 l 0.226,0.118 0.008,-0.259 c 0.116,-3.645 -0.027,-8.646 -0.991,-14.323 l -0.341,0.266 c 3.077,1.37 6.394,2.846 9.851,4.384 8.105,3.56 15.441,6.783 20.822,9.147 2.631,1.129 4.781,2.051 6.336,2.718 0.712,0.294 1.287,0.531 1.733,0.715 C -0.22,-0.059 -0.007,0.016 0,0"
             style="fill:#1a2e35;fill-opacity:1;fill-rule:nonzero;stroke:none"
             id="path574" />
        </g>
        <g
           id="g576"
           transform="translate(535.1027,53.2417)">
          <path
             d="m 0,0 h -380.906 c -8.046,0 -14.568,6.522 -14.568,14.567 v 263.741 c 0,8.045 6.522,14.567 14.568,14.567 H 0 c 8.045,0 14.567,-6.522 14.567,-14.567 V 14.567 C 14.567,6.522 8.045,0 0,0"
             style="fill:#375a64;fill-opacity:1;fill-rule:nonzero;stroke:none"
             id="path578" />
        </g>
        <g
           id="g580"
           transform="translate(550.0543,46.5301)">
          <path
             d="m 0,0 h -408.653 c -9.829,0 -17.797,7.968 -17.797,17.798 v 7.828 H 17.798 V 17.798 C 17.798,7.968 9.829,0 0,0"
             style="fill:#375a64;fill-opacity:1;fill-rule:nonzero;stroke:none"
             id="path582" />
        </g>
        <path
           d="M 537.517,87.152 H 150.636 v 247.329 h 386.881 z"
           style="fill:#1a2e35;fill-opacity:1;fill-rule:nonzero;stroke:none"
           id="path584" />
        <g
           id="g586"
           transform="translate(304.2279,74.9028)">
          <path
             d="M 0,0 5.513,-9.471 H 83.084 L 88.203,0 Z"
             style="fill:#1a2e35;fill-opacity:1;fill-rule:nonzero;stroke:none"
             id="path588" />
        </g>
        <g
           id="g590"
           transform="translate(527.0713,87.9434)">
          <path
             d="m 0,0 h -365.194 c -1.808,0 -3.273,1.465 -3.273,3.273 v 231.618 c 0,1.808 1.465,3.273 3.273,3.273 H 0 c 1.807,0 3.273,-1.465 3.273,-3.272 V 3.272 C 3.273,1.465 1.807,0 0,0"
             style="fill:#ececec;fill-opacity:1;fill-rule:nonzero;stroke:none"
             id="path592" />
        </g>
        <g
           id="g594"
           transform="translate(529.946,87.5949)">
          <path
             d="m 0,0 h -371.74 l 0.398,220.714 H 0 Z"
             style="fill:#fafafa;fill-opacity:1;fill-rule:nonzero;stroke:none"
             id="path596" />
        </g>
        <g
           id="g598"
           transform="translate(189.8379,316.91)">
          <path
             d="m 0,0 c 0,-1.771 -1.371,-3.207 -3.061,-3.207 -1.691,0 -3.061,1.436 -3.061,3.207 0,1.771 1.37,3.206 3.061,3.206 C -1.371,3.206 0,1.771 0,0"
             style="fill:#1a2e35;fill-opacity:1;fill-rule:nonzero;stroke:none"
             id="path600" />
        </g>
        <g
           id="g602"
           transform="translate(171.2841,316.91)">
          <path
             d="m 0,0 c 0,-1.771 -1.37,-3.207 -3.062,-3.207 -1.69,0 -3.061,1.436 -3.061,3.207 0,1.771 1.371,3.206 3.061,3.206 C -1.37,3.206 0,1.771 0,0"
             style="fill:#1a2e35;fill-opacity:1;fill-rule:nonzero;stroke:none"
             id="path604" />
        </g>
        <g
           id="g606"
           transform="translate(180.8201,316.91)">
          <path
             d="m 0,0 c 0,-1.771 -1.37,-3.207 -3.061,-3.207 -1.691,0 -3.062,1.436 -3.062,3.207 0,1.771 1.371,3.206 3.062,3.206 C -1.37,3.206 0,1.771 0,0"
             style="fill:#1a2e35;fill-opacity:1;fill-rule:nonzero;stroke:none"
             id="path608" />
        </g>
        <g
           id="g610"
           transform="translate(546.1463,74.903)">
          <path
             d="m 0,0 c 0,-0.159 -91.009,-0.287 -203.249,-0.287 -112.279,0 -203.268,0.128 -203.268,0.287 0,0.158 90.989,0.287 203.268,0.287 C -91.009,0.287 0,0.158 0,0"
             style="fill:#1a2e35;fill-opacity:1;fill-rule:nonzero;stroke:none"
             id="path612" />
        </g>
        <g
           id="g614"
           transform="translate(321.7843,222.8821)">
          <path
             d="m 0,0 c -13.312,-13.789 -12.927,-35.757 0.862,-49.069 13.789,-13.312 35.757,-12.926 49.069,0.863 13.311,13.788 12.926,35.757 -0.863,49.069 C 35.28,14.174 13.312,13.788 0,0 m -17.241,43.087 c 6.115,3.696 12.625,6.498 19.34,8.405 l 3.984,19.144 32.344,0.567 4.654,-18.99 c 6.778,-1.67 13.384,-4.241 19.625,-7.72 L 79.053,55.208 102.326,32.737 92.194,16.028 C 95.89,9.91 98.692,3.398 100.598,-3.317 l 19.142,-3.984 0.568,-32.344 -18.99,-4.656 c -1.67,-6.776 -4.242,-13.38 -7.72,-19.622 l 10.713,-16.348 -22.468,-23.273 -16.711,10.133 c -6.117,-3.696 -12.628,-6.497 -19.344,-8.404 l -3.984,-19.144 -32.343,-0.568 -4.656,18.992 c -6.777,1.671 -13.381,4.243 -19.624,7.721 l -16.346,-10.715 -23.273,22.469 10.133,16.71 c -3.696,6.118 -6.5,12.628 -8.406,19.344 l -19.143,3.984 -0.567,32.343 18.991,4.657 c 1.67,6.776 4.243,13.381 7.72,19.623 l -10.714,16.347 22.468,23.273 z"
             style="fill:#e1e1e1;fill-opacity:1;fill-rule:nonzero;stroke:none"
             id="path616" />
        </g>
        <g
           id="g618"
           transform="translate(448.8173,250.2564)">
          <path
             d="m 0,0 c -0.674,-7.97 6.273,-14.216 13.994,-12.881 5.263,0.911 9.389,5.358 9.84,10.68 C 24.511,5.77 17.561,12.02 9.839,10.682 4.575,9.771 0.45,5.323 0,0 m -15.066,3.37 c 0.445,2.423 1.21,4.743 2.253,6.911 l -4.029,5.404 7.247,8.475 5.963,-3.14 c 1.981,1.367 4.154,2.483 6.478,3.298 l 0.973,6.667 11.117,0.868 1.995,-6.434 c 2.423,-0.444 4.744,-1.21 6.912,-2.253 l 5.403,4.028 8.475,-7.247 -3.14,-5.964 c 1.367,-1.98 2.483,-4.153 3.298,-6.477 L 44.546,6.533 45.415,-4.583 38.98,-6.579 c -0.444,-2.423 -1.21,-4.743 -2.253,-6.911 l 4.028,-5.405 -7.246,-8.474 -5.965,3.14 c -1.98,-1.366 -4.153,-2.482 -6.477,-3.298 l -0.972,-6.667 -11.117,-0.868 -1.995,6.434 c -2.423,0.445 -4.744,1.21 -6.912,2.253 l -5.404,-4.028 -8.474,7.247 3.139,5.964 c -1.366,1.98 -2.482,4.153 -3.298,6.477 l -6.666,0.973 -0.869,11.116 z"
             style="fill:#e1e1e1;fill-opacity:1;fill-rule:nonzero;stroke:none"
             id="path620" />
        </g>
        <g
           id="g622"
           transform="translate(208.7527,138.3678)">
          <path
             d="M 0,0 C 1.779,-7.593 9.375,-12.306 16.968,-10.527 24.56,-8.748 29.273,-1.151 27.494,6.441 25.715,14.033 18.119,18.747 10.526,16.967 2.934,15.189 -1.778,7.592 0,0 m -18.535,3.607 c 0.085,2.906 0.563,5.75 1.392,8.466 l -5.667,5.585 6.939,11.184 7.519,-2.597 c 2.066,1.949 4.402,3.641 6.968,5.008 l -0.058,7.952 12.815,3.002 3.479,-7.15 c 2.907,-0.085 5.752,-0.563 8.468,-1.392 l 5.583,5.666 11.185,-6.939 -2.596,-7.52 c 1.948,-2.065 3.639,-4.401 5.006,-6.967 L 50.45,17.963 53.453,5.148 46.303,1.669 C 46.218,-1.237 45.739,-4.082 44.91,-6.798 l 5.667,-5.585 -6.939,-11.183 -7.52,2.596 c -2.066,-1.949 -4.402,-3.639 -6.967,-5.007 l 0.058,-7.952 -12.815,-3.002 -3.479,7.15 c -2.907,0.085 -5.751,0.562 -8.468,1.392 l -5.583,-5.667 -11.184,6.939 2.596,7.52 c -1.949,2.066 -3.64,4.402 -5.007,6.967 l -7.952,-0.058 -3.003,12.815 z"
             style="fill:#e1e1e1;fill-opacity:1;fill-rule:nonzero;stroke:none"
             id="path624" />
        </g>
        <g
           id="g626"
           transform="translate(224.5809,244.7515)">
          <path
             d="m 0,0 c 0.388,-4.966 4.727,-8.676 9.693,-8.288 4.965,0.387 8.676,4.727 8.288,9.693 C 17.593,6.37 13.254,10.081 8.288,9.693 3.323,9.305 -0.388,4.965 0,0 m -11.352,4.072 c 0.335,1.826 0.912,3.575 1.698,5.21 l -3.037,4.074 5.463,6.389 4.496,-2.367 c 1.493,1.03 3.132,1.872 4.884,2.486 l 0.733,5.027 8.381,0.654 1.504,-4.851 c 1.827,-0.335 3.577,-0.912 5.211,-1.698 l 4.074,3.036 6.389,-5.463 -2.367,-4.496 c 1.03,-1.493 1.872,-3.131 2.486,-4.884 l 5.026,-0.733 0.655,-8.381 -4.851,-1.504 C 29.058,-5.256 28.481,-7.005 27.695,-8.64 l 3.037,-4.074 -5.464,-6.389 -4.496,2.368 c -1.493,-1.031 -3.131,-1.872 -4.884,-2.487 l -0.732,-5.026 -8.382,-0.654 -1.504,4.85 c -1.826,0.335 -3.576,0.912 -5.211,1.699 l -4.073,-3.037 -6.389,5.463 2.367,4.497 c -1.031,1.492 -1.872,3.131 -2.487,4.883 l -5.026,0.733 -0.655,8.381 z"
             style="fill:#ececec;fill-opacity:1;fill-rule:nonzero;stroke:none"
             id="path628" />
        </g>
        <g
           id="g630"
           transform="translate(443.923,155.0757)">
          <path
             d="m 0,0 c 0.333,-4.265 4.061,-7.453 8.326,-7.12 4.265,0.334 7.453,4.061 7.119,8.326 -0.333,4.265 -4.06,7.453 -8.326,7.12 C 2.854,7.993 -0.333,4.265 0,0 m -9.751,3.497 c 0.288,1.569 0.783,3.072 1.458,4.476 l -2.608,3.499 4.693,5.488 3.861,-2.033 c 1.283,0.885 2.69,1.608 4.195,2.136 l 0.63,4.317 7.199,0.562 1.292,-4.166 c 1.57,-0.288 3.072,-0.784 4.477,-1.459 l 3.499,2.608 5.488,-4.693 -2.034,-3.862 c 0.885,-1.282 1.608,-2.689 2.136,-4.194 l 4.317,-0.63 0.563,-7.199 -4.167,-1.292 C 24.96,-4.514 24.464,-6.017 23.789,-7.421 l 2.609,-3.5 -4.693,-5.488 -3.862,2.034 c -1.283,-0.885 -2.69,-1.608 -4.195,-2.136 l -0.63,-4.317 -7.199,-0.563 -1.292,4.167 c -1.569,0.288 -3.072,0.783 -4.476,1.459 l -3.499,-2.609 -5.488,4.693 2.033,3.863 c -0.885,1.282 -1.607,2.689 -2.136,4.194 l -4.317,0.63 -0.562,7.199 z"
             style="fill:#ececec;fill-opacity:1;fill-rule:nonzero;stroke:none"
             id="path632" />
        </g>
        <g
           id="g634"
           transform="translate(345.7278,147.7244)"
           style="filter:url(#filter5281)">
          <path
             d="m 0,0 h -49.753 c -12.849,0 -20.879,13.909 -14.455,25.036 l 24.877,43.088 24.876,43.088 c 6.425,11.127 22.486,11.127 28.91,0 L 39.332,68.124 64.208,25.036 C 70.633,13.909 62.602,0 49.753,0 Z"
             style="fill:#ff735d;fill-opacity:1;fill-rule:nonzero;stroke:none"
             id="path636" />
        </g>
        <g
           id="g638"
           transform="translate(399.2851,167.7822)">
          <path
             d="m 0,0 c 0,0 0.139,-0.257 0.389,-0.773 0.19,-0.534 0.505,-1.354 0.504,-2.485 0.028,-1.116 -0.25,-2.546 -1.163,-3.929 -0.464,-0.678 -1.075,-1.345 -1.875,-1.868 -0.804,-0.508 -1.787,-0.862 -2.861,-0.934 -8.478,-0.091 -20.721,-0.076 -35.862,-0.113 -15.143,-0.016 -33.167,-0.035 -53.18,-0.056 -2.502,-0.001 -5.035,-0.003 -7.597,-0.004 -2.698,-0.059 -5.263,1.858 -6.13,4.435 -0.458,1.275 -0.557,2.689 -0.252,4.028 0.087,0.331 0.195,0.658 0.303,0.983 0.146,0.309 0.285,0.631 0.44,0.93 l 0.959,1.754 c 1.282,2.345 2.577,4.713 3.883,7.102 5.226,9.554 10.638,19.446 16.18,29.578 5.547,10.133 10.963,20.027 16.194,29.582 2.617,4.777 5.187,9.469 7.704,14.064 0.642,1.147 1.227,2.295 1.906,3.425 0.685,1.14 1.646,2.126 2.799,2.779 2.294,1.338 5.188,1.43 7.524,0.337 1.166,-0.542 2.209,-1.355 2.973,-2.375 0.752,-1.046 1.272,-2.144 1.872,-3.208 1.169,-2.14 2.321,-4.251 3.458,-6.332 2.272,-4.162 4.478,-8.202 6.611,-12.108 4.263,-7.813 8.234,-15.092 11.859,-21.738 7.233,-13.289 13.086,-24.044 17.14,-31.492 2.008,-3.715 3.57,-6.602 4.636,-8.575 0.521,-0.974 0.919,-1.72 1.195,-2.236 C -0.125,0.265 0,0 0,0 c 0,0 -0.156,0.248 -0.438,0.745 -0.286,0.511 -0.7,1.248 -1.24,2.211 -1.086,1.963 -2.676,4.834 -4.722,8.528 -4.088,7.429 -9.991,18.158 -17.285,31.414 -3.643,6.636 -7.632,13.904 -11.915,21.706 -2.14,3.903 -4.354,7.939 -6.634,12.096 -1.14,2.079 -2.296,4.188 -3.468,6.326 -0.596,1.058 -1.142,2.186 -1.837,3.145 -0.721,0.961 -1.701,1.72 -2.798,2.229 -2.196,1.025 -4.925,0.934 -7.075,-0.325 -1.082,-0.613 -1.981,-1.537 -2.624,-2.613 -0.655,-1.091 -1.256,-2.267 -1.892,-3.407 -2.513,-4.597 -5.08,-9.291 -7.692,-14.07 -5.228,-9.557 -10.641,-19.452 -16.185,-29.587 -5.546,-10.13 -10.96,-20.02 -16.19,-29.573 -1.307,-2.388 -2.604,-4.755 -3.888,-7.099 -0.613,-1.193 -1.395,-2.293 -1.656,-3.539 -0.284,-1.243 -0.193,-2.557 0.232,-3.745 0.812,-2.404 3.17,-4.164 5.662,-4.115 2.562,-0.002 5.095,-0.003 7.597,-0.005 20.013,-0.021 38.037,-0.04 53.18,-0.056 15.126,-0.022 27.37,-0.04 35.848,-0.053 1.04,0.062 1.994,0.396 2.779,0.883 0.781,0.502 1.382,1.146 1.842,1.803 0.907,1.343 1.198,2.743 1.188,3.842 C 0.748,-1.016 -0.096,-0.019 0,0"
             style="fill:#1a2e35;fill-opacity:1;fill-rule:nonzero;stroke:none"
             id="path640" />
        </g>
        <g
           id="g642"
           transform="translate(337.7496,222.1598)">
          <path
             d="M 0,0 H 16.901 L 14.059,-33.279 H 2.767 Z m -0.075,-45.169 c 0,4.412 3.515,7.702 8.526,7.702 5.01,0 8.45,-3.29 8.45,-7.702 0,-4.338 -3.44,-7.852 -8.45,-7.852 -5.011,0 -8.526,3.514 -8.526,7.852"
             style="fill:#ffffff;fill-opacity:1;fill-rule:nonzero;stroke:none"
             id="path644" />
        </g>
        <g
           id="g646"
           transform="translate(348.1124,263.8843)">
          <path
             d="m 0,0 c -0.038,-0.105 -1.164,0.559 -3.167,0.652 -1.971,0.116 -4.808,-0.533 -7.21,-2.411 -2.4,-1.893 -3.862,-4.34 -4.768,-6.121 -0.907,-1.801 -1.333,-2.987 -1.414,-2.957 -0.032,0.011 0.037,0.319 0.209,0.863 0.171,0.544 0.453,1.32 0.873,2.253 0.833,1.845 2.279,4.399 4.779,6.372 2.514,1.967 5.507,2.586 7.556,2.368 C -2.111,0.921 -1.299,0.678 -0.776,0.44 -0.249,0.206 0.013,0.025 0,0"
             style="fill:#ffffff;fill-opacity:1;fill-rule:nonzero;stroke:none"
             id="path648" />
        </g>
        <g
           id="g650"
           transform="translate(327.309,245.6011)">
          <path
             d="M 0,0 C -0.124,0.073 0.366,1.131 1.095,2.362 1.823,3.594 2.514,4.533 2.638,4.459 2.762,4.386 2.272,3.329 1.543,2.097 0.815,0.866 0.124,-0.073 0,0"
             style="fill:#ffffff;fill-opacity:1;fill-rule:nonzero;stroke:none"
             id="path652" />
        </g>
        <g
           id="g654">
          <g
             id="g656" />
          <g
             id="g668">
            <g
               clip-path="url(#clipPath660)"
               opacity="0.300003"
               id="g666">
              <g
                 transform="translate(370.6862,240.7434)"
                 id="g664">
                <path
                   d="M 0,0 -77.483,-47.746 -87.548,-65.179 5.471,-9.475 Z"
                   style="fill:#ffffff;fill-opacity:1;fill-rule:nonzero;stroke:none"
                   id="path662" />
              </g>
            </g>
          </g>
        </g>
        <g
           id="g670">
          <g
             id="g672" />
          <g
             id="g684">
            <g
               clip-path="url(#clipPath676)"
               opacity="0.300003"
               id="g682">
              <g
                 transform="translate(382.8868,219.5845)"
                 id="g680">
                <path
                   d="m 0,0 -102.705,-60.584 c 0.294,-1.375 1.217,-3.149 2.231,-4.317 L 1.816,-3.146 Z"
                   style="fill:#ffffff;fill-opacity:1;fill-rule:nonzero;stroke:none"
                   id="path678" />
              </g>
            </g>
          </g>
        </g>
        <g
           id="g686"
           transform="translate(636.7156,106.6046)">
          <path
             d="m 0,0 c -8.227,9.067 -20.698,11.98 -31.644,8.473 l -9.572,10.503 -1.333,1.491 -75.727,83.087 c 4.551,10.555 2.862,23.249 -5.365,32.316 -6.997,7.712 -17.064,10.976 -26.652,9.623 l -3.699,-1.47 12.881,-8.65 -0.682,-14.045 -10.414,-9.449 -14.045,0.683 -9.182,10.12 -3.795,-1.483 c -1.088,-8.477 4.595,-19.15 10.788,-25.976 8.214,-9.054 20.66,-11.971 31.595,-8.489 l 76.996,-84.479 2.367,-2.626 7.298,-8.007 c -4.526,-10.545 -2.829,-23.215 5.385,-32.269 6.168,-6.798 14.348,-11.337 22.857,-11.106 l 3.795,1.483 -9.183,10.121 0.683,14.044 10.414,9.449 14.045,-0.683 5.387,-11.603 3.795,1.483 C 9.269,-18.048 6.997,-7.711 0,0"
             style="fill:#e1e1e1;fill-opacity:1;fill-rule:nonzero;stroke:none"
             id="path688" />
        </g>
        <g
           id="g690">
          <g
             id="g692" />
          <g
             id="g704">
            <g
               clip-path="url(#clipPath696)"
               opacity="0.300003"
               id="g702">
              <g
                 transform="translate(636.7156,106.6046)"
                 id="g700">
                <path
                   d="m 0,0 c -8.227,9.067 -20.698,11.98 -31.644,8.473 l -9.572,10.503 -1.333,1.491 -75.727,83.087 c 4.551,10.555 2.862,23.249 -5.365,32.316 -6.997,7.712 -17.064,10.976 -26.652,9.623 l -3.699,-1.47 12.881,-8.65 -0.682,-14.045 -10.414,-9.449 -14.045,0.683 -9.182,10.12 -3.795,-1.483 c -1.088,-8.477 4.595,-19.15 10.788,-25.976 8.214,-9.054 20.66,-11.971 31.595,-8.489 l 76.996,-84.479 2.367,-2.626 7.298,-8.007 c -4.526,-10.545 -2.829,-23.215 5.385,-32.269 6.168,-6.798 14.348,-11.337 22.857,-11.106 l 3.795,1.483 -9.183,10.121 0.683,14.044 10.414,9.449 14.045,-0.683 5.387,-11.603 3.795,1.483 C 9.269,-18.048 6.997,-7.711 0,0"
                   style="fill:#000000;fill-opacity:1;fill-rule:nonzero;stroke:none"
                   id="path698" />
              </g>
            </g>
          </g>
        </g>
        <g
           id="g706"
           transform="translate(632.9205,105.1213)">
          <path
             d="m 0,0 c -8.227,9.067 -20.697,11.98 -31.644,8.473 l -9.572,10.503 -1.333,1.491 -75.727,83.087 c 4.551,10.555 2.862,23.249 -5.365,32.316 -6.997,7.712 -17.064,10.976 -26.652,9.623 l 9.182,-10.12 -0.682,-14.045 -10.414,-9.449 -14.045,0.683 -9.182,10.12 c -2.276,-9.411 -0.004,-19.747 6.993,-27.459 8.215,-9.054 20.66,-11.971 31.595,-8.489 l 76.996,-84.479 2.367,-2.626 7.298,-8.007 c -4.526,-10.545 -2.829,-23.215 5.385,-32.269 6.997,-7.711 17.064,-10.975 26.652,-9.623 l -9.182,10.12 0.682,14.045 10.414,9.449 14.045,-0.683 9.182,-10.12 C 9.269,-18.048 6.997,-7.711 0,0"
             style="fill:#e1e1e1;fill-opacity:1;fill-rule:nonzero;stroke:none"
             id="path708" />
        </g>
        <g
           id="g710"
           transform="translate(632.9204,105.1213)">
          <path
             d="M 0,0 C 0,0 0.436,-0.482 1.27,-1.448 2.04,-2.46 3.226,-3.959 4.4,-6.17 c 1.179,-2.199 2.341,-5.108 3.039,-8.713 0.633,-3.602 0.777,-7.933 -0.341,-12.601 l -0.048,-0.198 -0.137,0.151 c -2.723,2.992 -5.827,6.402 -9.198,10.106 l 0.09,-0.042 c -4.333,0.205 -9.043,0.428 -14.046,0.664 l 0.106,0.038 c -3.251,-2.955 -6.745,-6.132 -10.404,-9.459 l 0.053,0.111 c -0.208,-4.362 -0.435,-9.113 -0.67,-14.045 l -0.045,0.126 c 2.844,-3.129 5.969,-6.567 9.191,-10.113 l 0.237,-0.26 -0.349,-0.049 c -4.751,-0.679 -9.835,-0.233 -14.638,1.506 -4.8,1.725 -9.298,4.758 -12.786,8.865 -3.515,4.073 -6.016,9.233 -6.908,14.821 -0.917,5.574 -0.267,11.546 2.062,16.973 l 0.04,-0.241 c -25.677,28.167 -55.179,60.529 -86.686,95.09 l 0.27,-0.073 c -5.301,-1.691 -11.247,-1.932 -16.903,-0.474 -5.659,1.431 -10.966,4.611 -14.972,9.046 -3.37,3.712 -5.788,8.242 -6.985,13.053 -1.209,4.808 -1.212,9.876 -0.058,14.631 l 0.115,0.476 0.329,-0.362 c 3.082,-3.398 6.142,-6.771 9.181,-10.121 l -0.178,0.084 c 4.717,-0.23 9.399,-0.458 14.044,-0.685 l -0.184,-0.066 c 3.505,3.18 6.975,6.327 10.415,9.447 l -0.083,-0.176 c 0.231,4.735 0.459,9.412 0.685,14.045 l 0.065,-0.181 c -3.095,3.413 -6.153,6.785 -9.18,10.122 l -0.316,0.35 0.466,0.063 c 5.652,0.766 11.443,-0.014 16.521,-2.269 5.087,-2.231 9.462,-5.838 12.571,-10.236 3.129,-4.384 5.049,-9.529 5.515,-14.728 0.491,-5.198 -0.371,-10.408 -2.349,-15.041 l -0.04,0.241 C -80.58,62.445 -50.372,29.235 -31.559,8.551 l -0.12,0.032 c 5.419,1.722 10.569,1.665 14.798,0.917 4.238,-0.84 7.614,-2.325 10.102,-3.849 2.512,-1.508 4.136,-3.043 5.237,-4.03 C -0.511,0.553 0,0 0,0 c 0,0 -0.542,0.525 -1.584,1.577 -1.113,0.97 -2.745,2.486 -5.257,3.971 -2.488,1.502 -5.856,2.961 -10.072,3.779 -4.208,0.725 -9.324,0.763 -14.695,-0.963 l -0.071,-0.023 -0.05,0.055 c -18.849,20.652 -49.113,53.81 -86.714,95.006 l -0.097,0.107 0.057,0.134 c 1.944,4.567 2.789,9.7 2.301,14.819 -0.463,5.12 -2.357,10.182 -5.44,14.495 -3.065,4.329 -7.374,7.875 -12.379,10.067 -4.998,2.216 -10.697,2.98 -16.257,2.224 l 0.149,0.412 c 3.028,-3.336 6.088,-6.706 9.185,-10.118 l 0.07,-0.077 -0.005,-0.105 c -0.225,-4.632 -0.451,-9.31 -0.68,-14.044 l -0.005,-0.105 -0.078,-0.071 c -3.439,-3.121 -6.908,-6.27 -10.413,-9.45 l -0.078,-0.072 -0.106,0.005 c -4.646,0.225 -9.328,0.452 -14.045,0.681 l -0.107,0.005 -0.072,0.08 c -3.04,3.349 -6.101,6.722 -9.183,10.119 l 0.444,0.113 c -1.134,-4.674 -1.13,-9.657 0.059,-14.383 1.177,-4.728 3.553,-9.179 6.866,-12.829 3.939,-4.361 9.153,-7.485 14.716,-8.892 5.559,-1.434 11.405,-1.198 16.616,0.464 l 0.158,0.05 0.112,-0.123 c 31.488,-34.576 60.973,-66.954 86.636,-95.134 l 0.098,-0.108 -0.057,-0.133 c -2.299,-5.344 -2.947,-11.23 -2.048,-16.725 0.873,-5.51 3.332,-10.599 6.795,-14.621 3.437,-4.057 7.87,-7.055 12.605,-8.764 4.738,-1.723 9.758,-2.171 14.452,-1.508 l -0.112,-0.31 c -3.216,3.55 -6.336,6.995 -9.174,10.128 l -0.049,0.054 0.004,0.072 c 0.244,4.932 0.479,9.682 0.696,14.044 l 0.003,0.067 0.049,0.045 c 3.667,3.32 7.167,6.489 10.424,9.437 l 0.046,0.041 0.06,-0.003 c 5.003,-0.249 9.712,-0.484 14.044,-0.7 l 0.054,-0.003 0.035,-0.039 c 3.36,-3.714 6.453,-7.134 9.167,-10.135 l -0.184,-0.047 c 1.126,4.632 1,8.936 0.388,12.521 C 6.6,-11.324 5.46,-8.421 4.301,-6.222 3.147,-4.011 1.979,-2.506 1.225,-1.483 0.408,-0.508 0,0 0,0"
             style="fill:#1a2e35;fill-opacity:1;fill-rule:nonzero;stroke:none"
             id="path712" />
        </g>
        <g
           id="g714"
           transform="translate(511.1882,203.8292)">
          <path
             d="m 0,0 c 0.031,-0.017 -0.087,-0.281 -0.329,-0.746 -0.236,-0.467 -0.631,-1.116 -1.165,-1.886 -1.063,-1.541 -2.786,-3.519 -5.061,-5.274 -2.281,-1.748 -4.636,-2.904 -6.399,-3.535 -0.881,-0.318 -1.609,-0.533 -2.122,-0.64 -0.511,-0.115 -0.796,-0.161 -0.805,-0.127 -0.022,0.085 1.089,0.393 2.794,1.106 1.705,0.709 3.983,1.891 6.219,3.604 2.229,1.72 3.958,3.617 5.081,5.082 C -0.66,-0.951 -0.077,0.044 0,0"
             style="fill:#1a2e35;fill-opacity:1;fill-rule:nonzero;stroke:none"
             id="path716" />
        </g>
        <g
           id="g718"
           transform="translate(595.7566,167.7418)">
          <path
             d="m 0,0 -28.808,13.402 -25.713,3.205 9.444,-7.952 c 0,0 -33.238,-11.584 -33.821,-14.197 -0.583,-2.612 2.626,-9.628 8.481,-8.333 0,0 -3.294,-3.963 -1.922,-8.404 1.371,-4.44 4.399,-5.243 9.987,-4.212 0,0 -3.802,-5.691 -0.821,-8.592 2.98,-2.902 7.617,-2.165 7.617,-2.165 0,0 0.056,-6.932 3.718,-7.538 3.662,-0.606 13.863,0.112 17.67,1.287 3.807,1.176 19.349,5.976 19.349,5.976 l 12.611,2.767 z"
             style="fill:#ffc19d;fill-opacity:1;fill-rule:nonzero;stroke:none"
             id="path720" />
        </g>
        <g
           id="g722"
           transform="translate(542.8164,158.9443)">
          <path
             d="m 0,0 c 0.111,-0.381 -3.713,-1.827 -8.541,-3.229 -4.829,-1.403 -8.832,-2.231 -8.942,-1.85 -0.111,0.38 3.712,1.826 8.542,3.229 C -4.115,-0.448 -0.111,0.381 0,0"
             style="fill:#ff9c6a;fill-opacity:1;fill-rule:nonzero;stroke:none"
             id="path724" />
        </g>
        <g
           id="g726"
           transform="translate(547.7094,145.2654)">
          <path
             d="m 0,0 c 0.115,-0.38 -2.924,-1.63 -6.784,-2.793 -3.863,-1.162 -7.086,-1.797 -7.2,-1.417 -0.114,0.38 2.923,1.63 6.786,2.792 C -3.337,-0.255 -0.114,0.379 0,0"
             style="fill:#ff9c6a;fill-opacity:1;fill-rule:nonzero;stroke:none"
             id="path728" />
        </g>
        <g
           id="g730"
           transform="translate(552.0988,133.8995)">
          <path
             d="m 0,0 c 0.067,-0.426 -2.692,-1.011 -5.934,-1.824 -3.224,-0.847 -5.763,-1.957 -5.964,-1.581 -0.187,0.313 2.147,2.056 5.597,2.969 C -2.868,0.421 -0.052,0.355 0,0"
             style="fill:#ff9c6a;fill-opacity:1;fill-rule:nonzero;stroke:none"
             id="path732" />
        </g>
        <g
           id="g734"
           transform="translate(555.7323,177.5002)">
          <path
             d="m 0,0 c 0.107,-0.389 -3.667,-1.758 -8.33,-3.367 -4.666,-1.602 -8.483,-2.844 -8.638,-2.472 -0.151,0.359 3.456,2.211 8.171,3.83 C -4.086,-0.384 -0.102,0.376 0,0"
             style="fill:#ff9c6a;fill-opacity:1;fill-rule:nonzero;stroke:none"
             id="path736" />
        </g>
        <g
           id="g738"
           transform="translate(590.3421,170.2607)">
          <path
             d="M 0,0 62.286,-22.558 58.647,-65.311 -9.927,-37.663 Z"
             style="fill:#ffc19d;fill-opacity:1;fill-rule:nonzero;stroke:none"
             id="path740" />
        </g>
        <g
           id="g742"
           transform="translate(670.2597,245.0727)"
           style="filter:url(#filter4793)">
          <path
             d="m 0,0 c 0,0 8.123,-8.394 12.849,-23.484 4.694,-14.984 27.032,-79.055 26.463,-99.413 -0.588,-21.048 -14.758,-36.068 -45.9,-27.75 -18.583,4.963 -40.717,12.987 -40.717,12.987 l 15.734,51.733 12.309,-3.103 -19.878,37.313 z"
             style="fill:#ff735d;fill-opacity:1;fill-rule:nonzero;stroke:none"
             id="path744" />
        </g>
        <g
           id="g746"
           transform="translate(656.01,220.6184)">
          <path
             d="m 0,0 c 0.117,-0.084 -8.497,-12.356 -19.236,-27.407 -10.744,-15.057 -19.545,-27.191 -19.662,-27.108 -0.118,0.084 8.494,12.353 19.238,27.41 C -8.92,-12.053 -0.117,0.084 0,0"
             style="fill:#1a2e35;fill-opacity:1;fill-rule:nonzero;stroke:none"
             id="path748" />
        </g>
        <g
           id="g750"
           transform="translate(679.8394,148.966)">
          <path
             d="m 0,0 c -0.023,-0.037 -0.537,0.264 -1.511,0.71 -0.971,0.451 -2.422,1.003 -4.27,1.51 -1.846,0.511 -4.087,0.988 -6.575,1.529 -2.493,0.552 -5.221,1.155 -8.083,1.787 -5.733,1.283 -10.917,2.472 -14.662,3.358 -1.805,0.438 -3.297,0.801 -4.43,1.075 -1.043,0.266 -1.616,0.429 -1.608,0.464 0.008,0.035 0.597,-0.062 1.654,-0.266 1.142,-0.234 2.647,-0.542 4.467,-0.914 3.767,-0.795 8.964,-1.927 14.697,-3.209 2.859,-0.647 5.583,-1.264 8.074,-1.827 2.479,-0.567 4.716,-1.081 6.568,-1.643 1.852,-0.557 3.304,-1.17 4.257,-1.682 0.48,-0.25 0.839,-0.469 1.076,-0.628 C -0.11,0.106 0.009,0.015 0,0"
             style="fill:#1a2e35;fill-opacity:1;fill-rule:nonzero;stroke:none"
             id="path752" />
        </g>
        <g
           id="g754">
          <g
             id="g756" />
          <g
             id="g768">
            <g
               clip-path="url(#clipPath760)"
               opacity="0.300003"
               id="g766">
              <g
                 transform="translate(695.7627,146.7152)"
                 id="g764">
                <path
                   d="m 0,0 c -0.247,2.472 -2.097,4.557 -4.286,5.73 -2.189,1.173 -4.696,1.581 -7.157,1.919 -11.195,1.536 -22.508,1.962 -33.799,2.385 l 1.044,-0.453 c 13.936,-2.573 27.612,-6.557 40.749,-11.873 0.756,-0.306 1.615,-0.616 2.36,-0.284 C -0.179,-2.169 0.099,-0.992 0,0"
                   style="fill:#000000;fill-opacity:1;fill-rule:nonzero;stroke:none"
                   id="path762" />
              </g>
            </g>
          </g>
        </g>
        <g
           id="g770">
          <g
             id="g772" />
          <g
             id="g784">
            <g
               clip-path="url(#clipPath776)"
               opacity="0.300003"
               id="g782">
              <g
                 transform="translate(439.1354,345.0844)"
                 id="g780">
                <path
                   d="m 0,0 c -10.497,1.785 -23.054,-1.261 -33.551,0.524 -1.569,0.266 -3.285,0.509 -4.664,-0.285 -1.657,-0.954 -2.23,-3.069 -2.311,-4.979 -0.225,-5.285 2.22,-10.5 6.035,-14.164 3.815,-3.663 8.892,-5.851 14.106,-6.737 4.191,-0.712 8.695,-0.575 12.432,1.45 C -1.428,-20.657 1.728,-7.216 0,0"
                   style="fill:#000000;fill-opacity:1;fill-rule:nonzero;stroke:none"
                   id="path778" />
              </g>
            </g>
          </g>
        </g>
        <g
           id="g786"
           transform="translate(398.3915,325.8735)">
          <path
             d="m 0,0 c 0,0 -6.371,7.462 -7.294,10.908 -0.612,2.283 -0.305,8.667 -0.028,12.717 0.189,2.774 1.913,5.31 4.546,6.203 0.918,0.311 1.788,0.351 2.377,-0.192 0,0 0.403,0.698 2.902,3.258 2.5,2.559 3.687,4.294 9.19,2.702 0,0 4.046,4.272 6.375,3.953 2.328,-0.319 4.635,-0.999 4.635,-0.999 0,0 8.869,0.374 10.687,-2.443 0.796,-1.232 2.436,-2.093 4.028,-2.671 2.802,-1.016 5.103,-3.056 6.328,-5.773 1.666,-3.698 1.771,-7.731 1.771,-7.731 l -9.026,-0.357 c 0,0 0.637,-20.706 -1.629,-22.376 -2.266,-1.671 -3.134,-1.077 -3.134,-1.077 0,0 -1.729,-4.86 -8.476,-1.264 0,0 -5.603,-1.688 -7.993,0.621 C 12.869,-2.212 4.08,19.98 4.08,19.98 L 4.326,8.951 c 0,0 4.63,-7.138 2.363,-8.808 C 4.423,-1.528 0,0 0,0"
             style="fill:#ffc19d;fill-opacity:1;fill-rule:nonzero;stroke:none"
             id="path788" />
        </g>
        <g
           id="g790"
           transform="translate(409.6297,353.9419)">
          <path
             d="m 0,0 c 0.034,0.011 0.216,-0.453 0.514,-1.301 0.32,-0.946 0.729,-2.155 1.219,-3.604 1.007,-3.051 2.364,-7.275 3.832,-11.951 1.481,-4.674 2.674,-8.953 4.06,-11.835 0.669,-1.449 1.344,-2.554 1.836,-3.3 0.49,-0.747 0.802,-1.135 0.766,-1.165 -0.014,-0.011 -0.105,0.074 -0.266,0.249 -0.164,0.173 -0.393,0.438 -0.665,0.799 -0.548,0.716 -1.282,1.809 -2.003,3.257 -1.492,2.886 -2.747,7.175 -4.225,11.839 C 3.6,-12.336 2.299,-8.094 1.382,-5.015 0.955,-3.547 0.599,-2.32 0.321,-1.361 0.082,-0.495 -0.034,-0.011 0,0"
             style="fill:#ff9c6a;fill-opacity:1;fill-rule:nonzero;stroke:none"
             id="path792" />
        </g>
        <g
           id="g794"
           transform="translate(420.7031,356.4968)">
          <path
             d="m 0,0 c 0.035,0.009 0.197,-0.469 0.459,-1.341 0.279,-0.971 0.637,-2.215 1.065,-3.706 0.877,-3.134 2.053,-7.472 3.322,-12.272 1.269,-4.801 2.389,-9.155 3.175,-12.313 0.363,-1.508 0.667,-2.766 0.904,-3.748 0.203,-0.888 0.298,-1.383 0.263,-1.393 -0.034,-0.009 -0.196,0.468 -0.458,1.34 -0.279,0.97 -0.636,2.214 -1.065,3.704 -0.877,3.134 -2.054,7.474 -3.323,12.277 C 3.074,-12.651 1.953,-8.296 1.167,-5.138 0.803,-3.631 0.5,-2.373 0.263,-1.391 0.061,-0.504 -0.035,-0.009 0,0"
             style="fill:#ff9c6a;fill-opacity:1;fill-rule:nonzero;stroke:none"
             id="path796" />
        </g>
      </g>
    </g>
  </g>
</svg>
