<?xml version="1.0" encoding="UTF-8" standalone="no"?>
<svg
   version="1.1"
   width="148mm"
   height="98mm"
   viewBox="109 781 559.37007 370.39368"
   id="svg215"
   sodipodi:docname="img-navigation.svg"
   inkscape:version="1.2.1 (9c6d41e410, 2022-07-14)"
   xml:space="preserve"
   xmlns:inkscape="http://www.inkscape.org/namespaces/inkscape"
   xmlns:sodipodi="http://sodipodi.sourceforge.net/DTD/sodipodi-0.dtd"
   xmlns="http://www.w3.org/2000/svg"
   xmlns:svg="http://www.w3.org/2000/svg"><defs
     id="defs219" /><sodipodi:namedview
     id="namedview217"
     pagecolor="#ffffff"
     bordercolor="#000000"
     borderopacity="0.25"
     inkscape:showpageshadow="false"
     inkscape:pageopacity="0.0"
     inkscape:pagecheckerboard="false"
     inkscape:deskcolor="#d1d1d1"
     showgrid="false"
     inkscape:zoom="1.6740996"
     inkscape:cx="224.29968"
     inkscape:cy="209.96361"
     inkscape:window-width="1920"
     inkscape:window-height="974"
     inkscape:window-x="-11"
     inkscape:window-y="-11"
     inkscape:window-maximized="1"
     inkscape:current-layer="svg215"
     inkscape:document-units="mm" /><g
     id="g495"
     transform="translate(4,-14)"><g
       style="fill:#000000;fill-opacity:0.501961;stroke-linejoin:miter"
       id="g8"
       transform="matrix(0.74050999,0,0,1,-33.86842,-181.62355)"><path
         d="m 934.01794,1334.3842 -3.35814,1.1242 q -23.875,3.397 -139.71656,5.4339 -116.64319,2.0349 -274.71021,1.6504 -150.85476,-0.5374 -241.30038,-3.1463 -28.97978,-0.8435 -47.74089,-1.8376 l -15.76837,-1.0225 q -12.99445,-1.0549 -13.14057,-2.2021 3.94476,-3.5203 107.74596,-5.8577 103.80115,-2.3374 260.12149,-2.4263 156.32053,0.089 260.12193,2.4263 103.80116,2.3374 107.74574,5.8577"
         id="path6" /></g><g
       style="fill:#000000;fill-opacity:1;stroke-linejoin:miter"
       id="g12"
       transform="translate(-276.23674,-181.62355)"><path
         d="m 669.8053,1222.8038 h 44.27075 l 44.271,5e-4 q 0,55.917 0,111.8333 -44.271,0 -88.54185,5e-4 10e-5,-55.917 10e-5,-111.8343 z"
         id="path10" /></g><g
       style="fill:#000000;fill-opacity:1;stroke-linejoin:miter"
       id="g16"
       transform="translate(-276.23674,-181.62355)"><path
         d="m 508.37357,980.4074 206.35053,5e-4 206.3505,2.4e-4 q 0,134.18456 0,268.36906 -206.3505,0 -412.70116,0 0,-134.1845 1.3e-4,-268.3698 z"
         id="path14" /></g><g
       style="fill:#ffffff;fill-opacity:1;stroke-linejoin:miter"
       id="g20"
       transform="translate(-276.23674,-181.62355)"><path
         d="m 518.8462,992.5195 195.8779,2e-4 195.87795,5e-4 q -2.5e-4,121.3439 -2.5e-4,242.6877 -195.8777,0 -391.75573,5e-4 1.3e-4,-121.3445 1.3e-4,-242.6889 z"
         id="path18" /></g><g
       style="fill:#000000;fill-opacity:1;stroke-linejoin:miter"
       id="g24"
       transform="translate(-276.23674,-181.62355)"><path
         d="m 606.19006,1322.3898 107.88599,7e-4 107.88611,5e-4 q 0,8.584 0,17.1675 -107.88611,5e-4 -215.7721,9e-4 0,-8.5847 0,-17.1696 z"
         id="path22" /></g><g
       style="fill:#e6e6e6;fill-opacity:1;stroke-linejoin:miter"
       id="g32"
       transform="translate(-276.23674,-181.62355)"><path
         d="m 549.13403,1138.5487 78.4989,5e-4 v 11.2273 l -78.4989,5e-4 z m 0,0 78.4989,5e-4 v 11.2273 l -78.4989,5e-4 z m 0,0 78.4989,5e-4 v 11.2273 l -78.4989,5e-4 z m 0,0 78.4989,5e-4 v 11.2273 l -78.4989,5e-4 z"
         id="path30" /></g><g
       style="fill:#e6e6e6;fill-opacity:1;stroke-linejoin:miter"
       id="g36"
       transform="translate(-276.23674,-181.62355)"><path
         d="m 549.1339,1160.9086 59.8496,7e-4 v 11.2273 l -59.8496,5e-4 z m 0,0 59.8496,7e-4 v 11.2273 l -59.8496,5e-4 z m 0,0 59.8496,7e-4 v 11.2273 l -59.8496,5e-4 z m 0,0 59.8496,7e-4 v 11.2273 l -59.8496,5e-4 z"
         id="path34" /></g><g
       style="fill:#e6e6e6;fill-opacity:1;stroke-linejoin:miter"
       id="g40"
       transform="translate(-276.23674,-181.62355)"><path
         d="m 549.1339,1179.6534 78.49903,5e-4 v 11.2276 l -78.49903,2e-4 z m 0,0 78.49903,5e-4 v 11.2276 l -78.49903,2e-4 z m 0,0 78.49903,5e-4 v 11.2276 l -78.49903,2e-4 z m 0,0 78.49903,5e-4 v 11.2276 l -78.49903,2e-4 z"
         id="path38" /></g><g
       style="fill:#e6e6e6;fill-opacity:1;stroke-linejoin:miter"
       id="g44"
       transform="translate(-276.23674,-181.62355)"><path
         d="m 549.1339,1202.109 78.49903,3e-4 v 7.5166 l -78.49903,2e-4 z m 0,0 78.49903,3e-4 v 7.5166 l -78.49903,2e-4 z m 0,0 78.49903,3e-4 v 7.5166 l -78.49903,2e-4 z m 0,0 78.49903,3e-4 v 7.5166 l -78.49903,2e-4 z"
         id="path42" /></g><g
       style="fill:#e6e6e6;fill-opacity:1;stroke-linejoin:miter"
       id="g48"
       transform="translate(-276.23674,-181.62355)"><path
         d="m 638.7654,1160.9086 59.84947,7e-4 v 11.2273 l -59.84947,5e-4 z m 0,0 59.84947,7e-4 v 11.2273 l -59.84947,5e-4 z m 0,0 59.84947,7e-4 v 11.2273 l -59.84947,5e-4 z m 0,0 59.84947,7e-4 v 11.2273 l -59.84947,5e-4 z"
         id="path46" /></g><g
       style="fill:#e6e6e6;fill-opacity:1;stroke-linejoin:miter"
       id="g52"
       transform="translate(-276.23674,-181.62355)"><path
         d="m 638.7654,1179.6534 78.4989,5e-4 v 11.2276 l -78.4989,2e-4 z m 0,0 78.4989,5e-4 v 11.2276 l -78.4989,2e-4 z m 0,0 78.4989,5e-4 v 11.2276 l -78.4989,2e-4 z m 0,0 78.4989,5e-4 v 11.2276 l -78.4989,2e-4 z"
         id="path50" /></g><g
       style="fill:#e6e6e6;fill-opacity:1;stroke-linejoin:miter"
       id="g56"
       transform="translate(-276.23674,-181.62355)"><path
         d="m 638.7654,1202.109 78.4989,3e-4 v 7.5166 l -78.4989,2e-4 z m 0,0 78.4989,3e-4 v 7.5166 l -78.4989,2e-4 z m 0,0 78.4989,3e-4 v 7.5166 l -78.4989,2e-4 z m 0,0 78.4989,3e-4 v 7.5166 l -78.4989,2e-4 z"
         id="path54" /></g><g
       style="fill:#ffffff;fill-opacity:1;stroke-linejoin:miter"
       id="g60"
       transform="translate(-276.23674,-181.62355)"><path
         d="m 859.45105,1052.6998 c -3.09935,0 -6.52319,-2.5361 -6.52319,-5.636 v -53.5375 l 57.24304,59.1735 -50.71985,5e-4 z"
         id="path58" /></g><g
       style="fill:#e6e6e6;fill-opacity:1;stroke-linejoin:miter"
       id="g64"
       transform="translate(-276.23674,-181.62355)"><path
         d="m 759.9275,1111.8727 123.9817,5e-4 v 5.635 l -123.9817,5e-4 z m 0,0 123.9817,5e-4 v 5.635 l -123.9817,5e-4 z m 0,0 123.9817,5e-4 v 5.635 l -123.9817,5e-4 z m 0,0 123.9817,5e-4 v 5.635 l -123.9817,5e-4 z"
         id="path62" /></g><g
       style="fill:#b3b3b3;fill-opacity:1;stroke-linejoin:miter"
       id="g68"
       transform="translate(-276.23674,-181.62355)"><path
         d="m 759.9275,1123.1437 101.4397,7e-4 v 2.8171 l -101.4397,5e-4 z m 0,0 101.4397,7e-4 v 2.8171 l -101.4397,5e-4 z m 0,0 101.4397,7e-4 v 2.8171 l -101.4397,5e-4 z m 0,0 101.4397,7e-4 v 2.8171 l -101.4397,5e-4 z"
         id="path66" /></g><g
       style="fill:#b3b3b3;fill-opacity:1;stroke-linejoin:miter"
       id="g72"
       transform="translate(-276.23674,-181.62355)"><path
         d="m 790.923,1185.1346 90.16855,5e-4 v 2.8174 l -90.16855,5e-4 z m 0,0 90.16855,5e-4 v 2.8174 l -90.16855,5e-4 z m 0,0 90.16855,5e-4 v 2.8174 l -90.16855,5e-4 z m 0,0 90.16855,5e-4 v 2.8174 l -90.16855,5e-4 z"
         id="path70" /></g><g
       style="fill:#b3b3b3;fill-opacity:1;stroke-linejoin:miter"
       id="g76"
       transform="translate(-276.23674,-181.62355)"><path
         d="m 790.923,1193.588 90.16855,5e-4 v 2.8176 l -90.16855,3e-4 z m 0,0 90.16855,5e-4 v 2.8176 l -90.16855,3e-4 z m 0,0 90.16855,5e-4 v 2.8176 l -90.16855,3e-4 z m 0,0 90.16855,5e-4 v 2.8176 l -90.16855,3e-4 z"
         id="path74" /></g><g
       style="fill:#b3b3b3;fill-opacity:1;stroke-linejoin:miter"
       id="g80"
       transform="translate(-276.23674,-181.62355)"><path
         d="m 790.923,1210.4948 90.16855,7e-4 v 2.8171 l -90.16855,5e-4 z m 0,0 90.16855,7e-4 v 2.8171 l -90.16855,5e-4 z m 0,0 90.16855,7e-4 v 2.8171 l -90.16855,5e-4 z m 0,0 90.16855,7e-4 v 2.8171 l -90.16855,5e-4 z"
         id="path78" /></g><g
       style="fill:#b3b3b3;fill-opacity:1;stroke-linejoin:miter"
       id="g84"
       transform="translate(-276.23674,-181.62355)"><path
         d="m 790.923,1218.9481 90.16855,5e-4 v 2.8171 l -90.16855,8e-4 z m 0,0 90.16855,5e-4 v 2.8171 l -90.16855,8e-4 z m 0,0 90.16855,5e-4 v 2.8171 l -90.16855,8e-4 z m 0,0 90.16855,5e-4 v 2.8171 l -90.16855,8e-4 z"
         id="path82" /></g><g
       style="fill:#b3b3b3;fill-opacity:1;stroke-linejoin:miter"
       id="g88"
       transform="translate(-276.23674,-181.62355)"><path
         d="m 759.9275,1131.597 118.3462,5e-4 v 2.8174 l -118.3462,3e-4 z m 0,0 118.3462,5e-4 v 2.8174 l -118.3462,3e-4 z m 0,0 118.3462,5e-4 v 2.8174 l -118.3462,3e-4 z m 0,0 118.3462,5e-4 v 2.8174 l -118.3462,3e-4 z"
         id="path86" /></g><g
       style="fill:#b3b3b3;fill-opacity:1;stroke-linejoin:miter"
       id="g92"
       transform="translate(-276.23674,-181.62355)"><path
         d="m 759.9275,1140.0507 67.62633,4e-4 v 2.8174 l -67.62633,3e-4 z m 0,0 67.62633,4e-4 v 2.8174 l -67.62633,3e-4 z m 0,0 67.62633,4e-4 v 2.8174 l -67.62633,3e-4 z m 0,0 67.62633,4e-4 v 2.8174 l -67.62633,3e-4 z"
         id="path90" /></g><g
       style="fill:#929fa8;fill-opacity:1;stroke-linejoin:miter"
       id="g96"
       transform="translate(-276.23674,-181.62355)"><path
         d="m 744.1278,1008.3464 72.35316,5e-4 72.35278,2e-4 q 0,38.6425 0,77.2846 -72.35278,3e-4 -144.70594,7e-4 0,-38.6428 0,-77.286"
         id="path94" /></g><g
       style="fill:#3c464f;fill-opacity:1;stroke-linejoin:miter"
       id="g100"
       transform="translate(-276.23674,-181.62355)"><path
         d="m 617.6749,1000.9094 -2.7469,15.6482 0.0107,0.01 c -3.358,0.5486 -6.6068,1.428 -9.71006,2.5992 v -0.011 l -10.19594,-12.1823 -9.5835,5.5368 5.44155,14.9187 0.021,0.011 c -2.5979,2.1325 -4.97934,4.5224 -7.11084,7.1215 l -0.0104,-0.032 -14.9188,-5.4416 -5.5366,9.5832 12.18223,10.207 c -1.16906,3.1009 -2.04077,6.3448 -2.5885,9.6997 l -0.0107,-0.011 -15.64796,2.7473 v 11.073 l 15.64806,2.7471 0.0106,-0.011 c 0.54787,3.3547 1.41944,6.5989 2.5885,9.6997 l -12.18223,10.2063 5.5365,9.5835 14.9189,-5.4414 0.0104,-0.032 c 2.1315,2.5991 4.51294,4.9888 7.11084,7.1213 l -0.021,0.011 -5.44155,14.9189 9.5834,5.5366 10.19604,-12.1823 v -0.011 c 3.10303,1.1712 6.35206,2.0506 9.71006,2.5992 l -0.0108,0.011 2.74704,15.6481 11.06265,5e-4 2.74695,-15.6486 -0.0104,-0.011 c 3.3571,-0.5469 6.60695,-1.4192 9.71,-2.5884 l 10.2065,12.1823 9.5833,-5.5366 -5.45205,-14.9189 c 2.59229,-2.127 4.97229,-4.5086 7.10035,-7.1001 l 14.92944,5.4414 5.52612,-9.5835 -12.17186,-10.2065 c 1.1694,-3.1009 2.0514,-6.344 2.599,-9.6995 l 15.6482,-2.7361 v -11.0732 l -15.6481,-2.7474 c -0.5482,-3.3515 -1.431,-6.5908 -2.59924,-9.6887 l 12.172,-10.2068 -5.52612,-9.5832 -14.92944,5.4414 c -2.12806,-2.5918 -4.50794,-4.9729 -7.1002,-7.1004 l 5.452,-14.9191 -9.5834,-5.5366 -10.2063,12.1826 c -3.10325,-1.1692 -6.353,-2.0412 -9.71006,-2.5884 l 0.0104,-0.01 -2.74705,-15.6484 -11.06265,5e-4 z m 5.53665,26.943 c 21.54075,0 39.01085,17.458 39.01085,38.9976 0,21.5407 -17.4685,38.997 -39.01085,38.997 -21.5409,0 -38.99745,-17.458 -38.99732,-38.997 0,-21.541 17.45752,-38.9976 38.99732,-38.9976 z"
         id="path98" /></g><g
       style="fill:#000000;fill-opacity:1;stroke-linejoin:miter"
       id="g104"
       transform="translate(-276.23674,-181.62355)"><path
         d="m 460.0635,1299.4452 q 2.3589,-5e-4 5.56867,1.9067 1.6203,0.9424 4.63349,3.1526 l 21.15504,13.4805 q 3.57103,8.8132 3.4729,11.6662 0.0721,3.0159 -3.24855,3.6922 l -6.59785,0.9184 -8.82738,1.8824 q -2.3725,0.469 -4.40766,0.7404 -4.90746,0.6587 -11.44196,0.6456 -6.97594,0.032 -8.49804,-1.1751 -1.44952,-0.8061 -2.51776,-3.8159 -2.51392,-0.1494 -3.3636,-1.3157 -0.838,-1.0359 -0.8712,-3.2534 0.49017,-8.4295 6.3335,-20.708 4.1842,-8.1113 8.573,-7.8169"
         id="path102" /></g><g
       style="fill:#000000;fill-opacity:1;stroke-linejoin:miter"
       id="g108"
       transform="translate(-276.23674,-181.62355)"><path
         d="m 494.1852,1038.3492 q 3.39186,0.01 7.1377,2.1917 4.11243,2.46 6.72462,5.887 1.505,2.0583 1.55505,3.9021 0.0229,0.5522 -0.0646,1.1809 -0.51587,2.4226 -1.0122,6.563 l -27.67598,-2.0279 0.72095,-9.3352 q 0.26227,-1.7471 1.3028,-3.1135 1.73815,-2.2207 5.0769,-3.8103 3.15967,-1.45 6.21387,-1.4378"
         id="path106" /></g><g
       style="fill:#ff0000;fill-opacity:1;stroke-linejoin:miter"
       id="g112"
       transform="translate(-276.23674,-181.62355)"><path
         d="m 497.34988,1032.2794 10.63025,6.5161 q 1.72937,7.0305 1.73181,12.4532 l -3.92126,-3.9331 q -13.90991,-2.5765 -17.71058,-2.7867 -4.3289,-0.3742 -6.13427,1.0428 -1.0199,-2.3616 -0.80487,-2.7469 0.0654,-0.1596 0.17798,-0.2236 0.78204,-0.3572 1.07281,-0.6304 0.36805,-0.3132 0.72565,-0.874 0.74573,-1.1033 2.3011,-4.8928 l 11.91722,-3.9197"
         id="path110"
         style="fill:#5c93fe;fill-opacity:1" /></g><g
       style="fill:#ff0000;fill-opacity:1;stroke-linejoin:miter"
       id="g116"
       transform="translate(-276.23674,-181.62355)"><path
         d="m 506.92593,1070.5209 2.80103,6.6377 q 10.4769,1.073 17.49384,7.7517 4.85086,4.6162 6.6049,11.1445 1.3889,4.9927 0.69383,12.3311 -0.35986,3.9406 -1.24403,8.7924 -4.8623,22.9541 -4.54064,23.0889 -0.98206,7.4107 -0.11401,12.897 l -61.38945,-32.1094 q -3.62102,-2.2568 -12.74254,-1.0564 8.00414,-22.8603 13.6875,-27.5547 1.6781,-1.6096 3.95569,-2.9077 l 7.08765,-3.197 q 1.14428,-0.5505 2.11572,-1.3806 2.35272,-1.895 3.94012,-7.1941 l 21.60999,-7.23"
         id="path114"
         style="fill:#5c93fe;fill-opacity:1" /></g><g
       style="fill:#000000;fill-opacity:1;stroke-linejoin:miter"
       id="g120"
       transform="translate(-276.23674,-181.62355)"><path
         d="m 455.19345,1302.0482 q 3.0824,4.5667 0.0514,0.091 m 42.70563,-197.3527 q 8.10291,22.7397 13.53357,30.4211 5.19286,8.2129 17.91636,16.8247 0.93065,12.3257 0.6566,18.9753 -0.42895,11.8582 -4.0818,19.9261 -1.75425,4.008 -4.54295,8.457 l -12.32395,17.9888 q -2.744,4.1965 -4.77416,8.2134 -5.05554,9.6423 -10.40039,28.3471 -0.75879,41.1196 -1.48011,67.6033 l -2.27454,0.6023 q -2.32494,0.4136 -5.2981,-0.2803 -17.07988,-6.2576 -18.815,-5.3359 l 2.7008,-10.5005 q -8.96025,3.3354 -11.9456,-1.6016 0.28808,-0.025 0.0845,-1.0871 -2.22864,-9.8621 -2.70294,-13.816 -0.63867,-4.8566 -0.48053,-8.3212 0.1394,-3.5069 1.01416,-6.1094 l 7.63794,-19.1362 q -0.39716,-41.8199 1.28644,-59.4256 0.64953,-7.5181 1.83599,-14.5469 0.30274,-2.7248 5.05774,-25.134 0.99939,-5.384 1.34473,-9.5698 1.31787,-13.1907 -3.2556,-37.6526 l 29.18517,-4.822"
         id="path118" /></g><g
       style="fill:#000000;fill-opacity:1;stroke-linejoin:miter"
       id="g124"
       transform="translate(-276.23674,-181.62355)"><path
         d="m 509.9672,1077.1837 q 2.49935,0.2727 4.8004,0.8667 h -10e-4 q -8.98324,9.8076 -12.27402,15.0227 -3.85449,5.8994 -6.19788,13.9104 l -7.03821,1.0838 q 2.09681,-5.0213 3.34267,-7.5645 2.88023,-6.0039 6.62193,-10.8843 3.23327,-4.3503 10.745,-12.4348 z"
         id="path122" /></g><g
       style="fill:#000000;fill-opacity:1;stroke-linejoin:miter"
       id="g128"
       transform="translate(-276.23674,-181.62355)"><path
         d="m 480.07394,1085.8756 q -2.46534,5.4553 -3.56488,9.4419 -1.29826,4.3547 -3.13421,15.1536 l -4.08265,-0.1856 q 2.31922,-11.4311 3.90088,-16.924 0.88428,-3.106 1.7425,-5.0889 h -0.002 l 4.28595,-1.9336 q 0.43908,-0.2112 0.85235,-0.4636 z"
         id="path126" /></g><g
       style="fill:#ffc090;fill-opacity:1;stroke-linejoin:miter"
       id="g132"
       transform="translate(-276.23674,-181.62355)"><path
         d="m 505.0226,1106.225 q 0.83778,0.068 0.27382,1.3796 -0.45692,1.2163 -2.70887,4.7002 10.59285,2.4319 13.29612,5.8833 1.92113,1.9893 3.92113,6.915 l -2.9233,2.7764 q -7.16736,6.8299 -15.56116,9.3523 -2.72827,0.8731 -6.1344,1.6668 l -14.08227,2.915 -10.69947,2.6465 q -4.1131,0.8652 -7.9652,0.959 -9.33863,0.1628 -10.94104,-5.4571 -1.55676,-5.8276 3.91766,-20.4062 4.79236,-1.2124 8.97681,-0.9016 2.37897,0.2781 4.1112,2.8232 2.33844,-2.133 4.48004,-2.417 0.82526,-0.1457 2.0243,-0.144 6.51519,0.2976 8.18426,0.1199 3.01672,-0.1878 6.25494,-1.034 3.28613,-0.9077 4.66603,-1.9529 0.65026,-0.4963 1.0006,-1.08 1.23303,-2.7837 1.51794,-3.0389 0.60266,-0.864 1.48366,-1.6445 4.09715,-3.4477 6.85887,-4.06"
         id="path130" /></g><g
       style="fill:#ffc090;fill-opacity:1;stroke-linejoin:miter"
       id="g136"
       transform="translate(-276.23674,-181.62355)"><path
         d="m 492.9451,1042.9442 q 4.42187,-0.1894 12.8496,4.376 l 0.2389,9.0554 1.1322,0.3672 q 1.34668,-2.2253 2.34033,-1.6489 1.58374,0.7878 1.47803,3.1699 -0.55884,4.4297 -4.36182,7.1716 -0.88928,3.4746 -0.8562,4.6748 -0.0536,1.1162 0.91468,2.1465 l -16.33899,15.2708 -1.03479,4.2942 -1.53931,-7.2415 -1.58118,-4.9495 0.20099,-5.9987 q -1.78094,-1.3575 -2.39214,-2.606 -0.8199,-1.3584 -1.2989,-5.9993 -1.26776,-0.2685 -1.81604,-1.872 -1.20366,-3.7481 -1.15271,-7.1534 0.10805,-1.3606 0.73835,-1.5905 0.21942,-0.084 0.54357,0.092 l 1.18573,0.848 q 0.21344,-7.1546 0.9731,-10.4524 6.41283,-2.0638 9.75756,-1.9546"
         id="path134" /></g><g
       style="fill:#000000;fill-opacity:0.266667;stroke-linejoin:miter"
       id="g140"
       transform="translate(-276.23674,-181.62355)"><path
         d="m 502.26187,1112.8073 q -2.33093,3.1201 -8.33179,4.759 -3.03283,0.8247 -8.13763,1.5234 -6.23877,0.8191 -10.35931,0.9988 h -9.8e-4 q -0.0139,-0.025 0.99237,-0.1501 5.75127,-0.677 7.0047,-0.8447 1.8595,-0.2388 3.19537,-0.4449 3.2917,-0.5034 5.67035,-1.1555 0.81909,-0.2204 2.12965,-0.6279 l 4.71264,-1.8489 3.12304,-2.2077 z m -34.63197,8.9318 q -0.98522,2.2789 -1.1715,3.7059 -0.1546,1.1982 0.51233,1.8261 0.52442,0.5286 1.72987,1.0291 l 1.25207,0.487 q 1.83551,0.3699 2.75946,0.7342 1.06891,0.3994 2.03692,1.0346 0.88569,0.5835 1.71143,1.357 3.91942,4.0214 4.48682,4.4096 1.44696,1.2412 2.86517,1.9637 2.21423,1.1591 5.34711,1.1821 0.29432,0 0.5968,-0.01 3.04785,0 9.7373,-1.524 l 0.001,5e-4 q -6.65161,1.8733 -9.89588,1.9639 -0.50477,0.026 -0.99151,0.023 -3.07446,-0.022 -5.44356,-1.2482 -1.37828,-0.6914 -3.01653,-1.9996 -0.4978,-0.3171 -5.10192,-4.5524 -1.09552,-0.938 -1.90645,-1.4627 -0.9155,-0.5964 -1.9243,-1.0432 -0.54248,-0.3013 -4.08362,-1.459 -0.73303,-0.2903 -1.08685,-0.6614 -1.26923,-1.2793 1.57897,-5.7546 l 0.004,-0.01 z m 12.1133,76.4041 -12.09205,30.0085 q -3.25457,11.0445 -4.11047,15.5418 -0.95348,4.5693 -1.11615,10.749 -0.16327,-7.2651 0.42207,-11.8562 0.6123,-5.1626 2.3006,-10.6433 2.76018,-9.5046 14.57713,-33.7617 z m 11.5907,59.0139 h -0.002 -9.8e-4 z m -0.003,0.01 -10.2934,21.7075 q -0.3676,-4.1954 1.68555,-8.2459 1.8587,-4.094 8.60625,-13.4616 z m -10.29602,21.714 q 0.4107,3.751 0.2973,4.2881 -0.0489,1.1338 -0.69031,2.4461 -0.36932,0.7407 -0.9162,1.5576 -3.88794,5.3599 -5.38667,7.9497 -2.67217,4.4026 -6.43517,11.4495 l 13.11359,-27.6555 z"
         id="path138" /></g><g
       style="fill:#000000;fill-opacity:0.192157;stroke-linejoin:miter"
       id="g144"
       transform="translate(-276.23674,-181.62355)"><path
         d="m 505.00052,1070.8663 -9.22962,10.8826 -9.02587,-7.749 q 1.73889,1.51 4.49633,2.2226 2.82422,0.7398 5.17591,0.3384 1.85168,-0.3015 3.78027,-1.5972 1.71741,-1.1071 4.79773,-4.0935"
         id="path142" /></g></g></svg>
