<?xml version="1.0" encoding="UTF-8" standalone="no"?>
<!-- Created with Inkscape (http://www.inkscape.org/) -->

<svg
   width="210mm"
   height="148mm"
   viewBox="0 0 210 148"
   version="1.1"
   id="svg1211"
   inkscape:version="1.2.1 (9c6d41e410, 2022-07-14)"
   sodipodi:docname="add-user.svg"
   xmlns:inkscape="http://www.inkscape.org/namespaces/inkscape"
   xmlns:sodipodi="http://sodipodi.sourceforge.net/DTD/sodipodi-0.dtd"
   xmlns="http://www.w3.org/2000/svg"
   xmlns:svg="http://www.w3.org/2000/svg">
  <sodipodi:namedview
     id="namedview1213"
     pagecolor="#ffffff"
     bordercolor="#000000"
     borderopacity="0.25"
     inkscape:showpageshadow="2"
     inkscape:pageopacity="0.0"
     inkscape:pagecheckerboard="0"
     inkscape:deskcolor="#d1d1d1"
     inkscape:document-units="mm"
     showgrid="false"
     inkscape:zoom="0.68862935"
     inkscape:cx="397.16576"
     inkscape:cy="446.5392"
     inkscape:window-width="1920"
     inkscape:window-height="974"
     inkscape:window-x="-11"
     inkscape:window-y="-11"
     inkscape:window-maximized="1"
     inkscape:current-layer="layer1" />
  <defs
     id="defs1208">
    <clipPath
       clipPathUnits="userSpaceOnUse"
       id="clipPath366">
      <path
         d="M 0,500 H 500 V 0 H 0 Z"
         id="path364" />
    </clipPath>
    <clipPath
       clipPathUnits="userSpaceOnUse"
       id="clipPath408">
      <path
         d="m 73.625,292.416 h 28.413 V 279.649 H 73.625 Z"
         id="path406" />
    </clipPath>
    <clipPath
       clipPathUnits="userSpaceOnUse"
       id="clipPath424">
      <path
         d="M 80.6338,308.536 H 95.0301 V 294.139 H 80.6338 Z"
         id="path422" />
    </clipPath>
    <clipPath
       clipPathUnits="userSpaceOnUse"
       id="clipPath440">
      <path
         d="m 118.412,305.872 h 210.716 v -20.13 H 118.412 Z"
         id="path438" />
    </clipPath>
    <clipPath
       clipPathUnits="userSpaceOnUse"
       id="clipPath460">
      <path
         d="m 73.625,239.083 h 28.413 V 226.316 H 73.625 Z"
         id="path458" />
    </clipPath>
    <clipPath
       clipPathUnits="userSpaceOnUse"
       id="clipPath476">
      <path
         d="M 80.6338,255.203 H 95.0301 V 240.806 H 80.6338 Z"
         id="path474" />
    </clipPath>
    <clipPath
       clipPathUnits="userSpaceOnUse"
       id="clipPath492">
      <path
         d="m 118.412,252.539 h 210.716 v -20.13 H 118.412 Z"
         id="path490" />
    </clipPath>
    <clipPath
       clipPathUnits="userSpaceOnUse"
       id="clipPath508">
      <path
         d="m 255.52,323.67 h 89.56 V 173.43 h -89.56 z"
         id="path506" />
    </clipPath>
    <clipPath
       clipPathUnits="userSpaceOnUse"
       id="clipPath524">
      <path
         d="M 0,500 H 500 V 0 H 0 Z"
         id="path522" />
    </clipPath>
    <clipPath
       clipPathUnits="userSpaceOnUse"
       id="clipPath552">
      <path
         d="m 384.16,229.356 h 4.634 v -9.832 h -4.634 z"
         id="path550" />
    </clipPath>
    <clipPath
       clipPathUnits="userSpaceOnUse"
       id="clipPath568">
      <path
         d="m 388.414,224.269 h 0.386 v -4.749 h -0.386 z"
         id="path566" />
    </clipPath>
    <clipPath
       clipPathUnits="userSpaceOnUse"
       id="clipPath588">
      <path
         d="m 363.177,259.553 h 0.165 v -1.467 h -0.165 z"
         id="path586" />
    </clipPath>
    <clipPath
       clipPathUnits="userSpaceOnUse"
       id="clipPath612">
      <path
         d="m 363.067,262.548 h 6.494 v -4.547 h -6.494 z"
         id="path610" />
    </clipPath>
  </defs>
  <g
     inkscape:label="Camada 1"
     inkscape:groupmode="layer"
     id="layer1">
    <g
       id="g360"
       transform="matrix(0.54239304,0,0,-0.54239307,-21.216214,223.79341)">
      <g
         id="g362"
         clip-path="url(#clipPath366)">
        <g
           id="g368"
           transform="translate(52.3009,386.4749)">
          <path
             d="m 0,0 c 0,3.453 2.825,6.279 6.279,6.279 h 280.22 c 3.454,0 6.279,-2.826 6.279,-6.279 V -20.211 H 0 Z"
             style="fill:#1a2e35;fill-opacity:1;fill-rule:nonzero;stroke:none"
             id="path370" />
        </g>
        <g
           id="g372"
           transform="translate(103.0667,383.7004)">
          <path
             d="m 0,0 c -2.311,0 -4.192,-1.88 -4.192,-4.192 0,-2.311 1.881,-4.192 4.192,-4.192 2.311,0 4.192,1.881 4.192,4.192 C 4.192,-1.88 2.311,0 0,0 m 0,-9.495 c -2.924,0 -5.303,2.379 -5.303,5.303 0,2.925 2.379,5.304 5.303,5.304 2.924,0 5.303,-2.379 5.303,-5.304 0,-2.924 -2.379,-5.303 -5.303,-5.303"
             style="fill:#f0f0f0;fill-opacity:1;fill-rule:nonzero;stroke:none"
             id="path374" />
        </g>
        <g
           id="g376"
           transform="translate(86.2446,383.7004)">
          <path
             d="m 0,0 c -2.311,0 -4.192,-1.88 -4.192,-4.192 0,-2.311 1.881,-4.192 4.192,-4.192 2.311,0 4.192,1.881 4.192,4.192 C 4.192,-1.88 2.311,0 0,0 m 0,-9.495 c -2.924,0 -5.303,2.379 -5.303,5.303 0,2.925 2.379,5.304 5.303,5.304 2.924,0 5.303,-2.379 5.303,-5.304 0,-2.924 -2.379,-5.303 -5.303,-5.303"
             style="fill:#f0f0f0;fill-opacity:1;fill-rule:nonzero;stroke:none"
             id="path378" />
        </g>
        <g
           id="g380"
           transform="translate(69.4224,383.7004)">
          <path
             d="m 0,0 c -2.311,0 -4.192,-1.88 -4.192,-4.192 0,-2.311 1.881,-4.192 4.192,-4.192 2.311,0 4.192,1.881 4.192,4.192 C 4.192,-1.88 2.311,0 0,0 m 0,-9.495 c -2.924,0 -5.303,2.379 -5.303,5.303 0,2.925 2.379,5.304 5.303,5.304 2.924,0 5.303,-2.379 5.303,-5.304 0,-2.924 -2.379,-5.303 -5.303,-5.303"
             style="fill:#f0f0f0;fill-opacity:1;fill-rule:nonzero;stroke:none"
             id="path382" />
        </g>
        <g
           id="g384"
           transform="translate(338.8001,173.4271)">
          <path
             d="m 0,0 h -280.221 c -3.453,0 -6.278,2.825 -6.278,6.279 V 192.837 H 6.279 V 6.279 C 6.279,2.825 3.453,0 0,0"
             style="fill:#007cff;fill-opacity:1;fill-rule:nonzero;stroke:none"
             id="path386" />
        </g>
        <path
           d="M 343.301,195.56 H 54.079 v 165.333 h 289.222 z"
           style="fill:#ffffff;fill-opacity:1;fill-rule:nonzero;stroke:none"
           id="path388" />
        <g
           id="g390"
           transform="translate(182.229,324.3878)">
          <path
             d="m 0,0 h -110.167 c -2.104,0 -3.81,1.706 -3.81,3.81 v 14.713 c 0,2.104 1.706,3.81 3.81,3.81 H 0 c 2.104,0 3.81,-1.706 3.81,-3.81 V 3.81 C 3.81,1.706 2.104,0 0,0"
             style="fill:#007cff;fill-opacity:1;fill-rule:nonzero;stroke:none"
             id="path392" />
        </g>
        <g
           id="g394"
           transform="translate(325.3174,346.7208)">
          <path
             d="m 0,0 h -110.166 c -2.104,0 -3.811,-1.706 -3.811,-3.811 v -14.712 c 0,-2.104 1.707,-3.81 3.811,-3.81 H 0 c 2.104,0 3.811,1.706 3.811,3.81 V -3.811 C 3.811,-1.706 2.104,0 0,0 m 0,-1 c 1.55,0 2.811,-1.261 2.811,-2.811 v -14.712 c 0,-1.549 -1.261,-2.81 -2.811,-2.81 h -110.166 c -1.55,0 -2.811,1.261 -2.811,2.81 v 14.712 c 0,1.55 1.261,2.811 2.811,2.811 H 0"
             style="fill:#007cff;fill-opacity:1;fill-rule:nonzero;stroke:none"
             id="path396" />
        </g>
        <g
           id="g398"
           transform="translate(87.832,315.3868)">
          <path
             d="m 0,0 c -10.814,0 -19.58,-8.767 -19.58,-19.58 0,-10.814 8.766,-19.58 19.58,-19.58 10.814,0 19.58,8.766 19.58,19.58 C 19.58,-8.767 10.814,0 0,0 m 0,-1 c 10.245,0 18.58,-8.335 18.58,-18.58 0,-10.245 -8.335,-18.58 -18.58,-18.58 -10.245,0 -18.58,8.335 -18.58,18.58 C -18.58,-9.335 -10.245,-1 0,-1"
             style="fill:#007cff;fill-opacity:1;fill-rule:nonzero;stroke:none"
             id="path400" />
        </g>
        <g
           id="g402">
          <g
             id="g404" />
          <g
             id="g416">
            <g
               clip-path="url(#clipPath408)"
               opacity="0.399994"
               id="g414">
              <g
                 transform="translate(102.0385,288.1115)"
                 id="g412">
                <path
                   d="m 0,0 c -2.726,-5.036 -8.064,-8.462 -14.207,-8.462 -6.143,0 -11.481,3.426 -14.207,8.462 4.069,2.718 8.951,4.304 14.207,4.304 C -8.951,4.304 -4.068,2.718 0,0"
                   style="fill:#007cff;fill-opacity:1;fill-rule:nonzero;stroke:none"
                   id="path410" />
              </g>
            </g>
          </g>
        </g>
        <g
           id="g418">
          <g
             id="g420" />
          <g
             id="g432">
            <g
               clip-path="url(#clipPath424)"
               opacity="0.399994"
               id="g430">
              <g
                 transform="translate(95.0301,301.3374)"
                 id="g428">
                <path
                   d="m 0,0 c 0,-3.975 -3.223,-7.198 -7.198,-7.198 -3.976,0 -7.198,3.223 -7.198,7.198 0,3.975 3.222,7.198 7.198,7.198 C -3.223,7.198 0,3.975 0,0"
                   style="fill:#007cff;fill-opacity:1;fill-rule:nonzero;stroke:none"
                   id="path426" />
              </g>
            </g>
          </g>
        </g>
        <g
           id="g434">
          <g
             id="g436" />
          <g
             id="g448">
            <g
               clip-path="url(#clipPath440)"
               opacity="0.399994"
               id="g446">
              <g
                 transform="translate(319.0627,285.7417)"
                 id="g444">
                <path
                   d="m 0,0 h -190.586 c -5.558,0 -10.065,4.506 -10.065,10.065 0,5.559 4.507,10.065 10.065,10.065 H 0 c 5.559,0 10.065,-4.506 10.065,-10.065 C 10.065,4.506 5.559,0 0,0"
                   style="fill:#007cff;fill-opacity:1;fill-rule:nonzero;stroke:none"
                   id="path442" />
              </g>
            </g>
          </g>
        </g>
        <g
           id="g450"
           transform="translate(87.832,262.0538)">
          <path
             d="m 0,0 c -10.814,0 -19.58,-8.766 -19.58,-19.58 0,-10.814 8.766,-19.58 19.58,-19.58 10.814,0 19.58,8.766 19.58,19.58 C 19.58,-8.766 10.814,0 0,0 m 0,-1 c 10.245,0 18.58,-8.335 18.58,-18.58 0,-10.245 -8.335,-18.58 -18.58,-18.58 -10.245,0 -18.58,8.335 -18.58,18.58 C -18.58,-9.335 -10.245,-1 0,-1"
             style="fill:#007cff;fill-opacity:1;fill-rule:nonzero;stroke:none"
             id="path452" />
        </g>
        <g
           id="g454">
          <g
             id="g456" />
          <g
             id="g468">
            <g
               clip-path="url(#clipPath460)"
               opacity="0.399994"
               id="g466">
              <g
                 transform="translate(102.0385,234.7786)"
                 id="g464">
                <path
                   d="m 0,0 c -2.726,-5.037 -8.064,-8.462 -14.207,-8.462 -6.143,0 -11.481,3.425 -14.207,8.462 4.069,2.718 8.951,4.304 14.207,4.304 C -8.951,4.304 -4.068,2.718 0,0"
                   style="fill:#007cff;fill-opacity:1;fill-rule:nonzero;stroke:none"
                   id="path462" />
              </g>
            </g>
          </g>
        </g>
        <g
           id="g470">
          <g
             id="g472" />
          <g
             id="g484">
            <g
               clip-path="url(#clipPath476)"
               opacity="0.399994"
               id="g482">
              <g
                 transform="translate(95.0301,248.0045)"
                 id="g480">
                <path
                   d="m 0,0 c 0,-3.975 -3.223,-7.198 -7.198,-7.198 -3.976,0 -7.198,3.223 -7.198,7.198 0,3.975 3.222,7.198 7.198,7.198 C -3.223,7.198 0,3.975 0,0"
                   style="fill:#007cff;fill-opacity:1;fill-rule:nonzero;stroke:none"
                   id="path478" />
              </g>
            </g>
          </g>
        </g>
        <g
           id="g486">
          <g
             id="g488" />
          <g
             id="g500">
            <g
               clip-path="url(#clipPath492)"
               opacity="0.399994"
               id="g498">
              <g
                 transform="translate(319.0627,232.4089)"
                 id="g496">
                <path
                   d="m 0,0 h -190.586 c -5.558,0 -10.065,4.506 -10.065,10.065 v 0 c 0,5.559 4.507,10.065 10.065,10.065 H 0 c 5.559,0 10.065,-4.506 10.065,-10.065 v 0 C 10.065,4.506 5.559,0 0,0"
                   style="fill:#007cff;fill-opacity:1;fill-rule:nonzero;stroke:none"
                   id="path494" />
              </g>
            </g>
          </g>
        </g>
        <g
           id="g502">
          <g
             id="g504" />
          <g
             id="g516">
            <g
               clip-path="url(#clipPath508)"
               opacity="0.100006"
               id="g514">
              <g
                 transform="translate(272.12,232.7004)"
                 id="g512">
                <path
                   d="m 0,0 c 0,-6.13 0.6,-12.231 1.79,-18.22 -11.16,-6.62 -18.39,-18.81 -18.39,-32.23 0,-3.04 0.36,-5.991 1.05,-8.821 h 82.23 c 3.45,0 6.28,2.821 6.28,6.281 V 90.97 C 31.26,81.71 0,44.44 0,0"
                   style="fill:#000000;fill-opacity:1;fill-rule:nonzero;stroke:none"
                   id="path510" />
              </g>
            </g>
          </g>
        </g>
      </g>
    </g>
    <g
       id="g518"
       transform="matrix(0.54239304,0,0,-0.54239307,-37.165954,216.1139)">
      <g
         id="g520"
         clip-path="url(#clipPath524)">
        <g
           id="g526"
           transform="translate(448.4945,228.7599)">
          <path
             d="m 0,0 c 0,-45.944 -37.245,-83.189 -83.189,-83.189 -45.944,0 -83.189,37.245 -83.189,83.189 0,45.944 37.245,83.189 83.189,83.189 C -37.245,83.189 0,45.944 0,0"
             style="fill:#007cff;fill-opacity:1;fill-rule:nonzero;stroke:none"
             id="path528" />
        </g>
        <g
           id="g530"
           transform="translate(441.5326,228.8687)">
          <path
             d="m 0,0 c 0,-41.883 -33.953,-75.836 -75.836,-75.836 -41.883,0 -75.836,33.953 -75.836,75.836 0,41.883 33.953,75.836 75.836,75.836 C -33.953,75.836 0,41.883 0,0"
             style="fill:#ffffff;fill-opacity:1;fill-rule:nonzero;stroke:none"
             id="path532" />
        </g>
        <g
           id="g534"
           transform="translate(324.5005,240.2485)">
          <path
             d="M 0,0 C -0.02,0.074 -0.03,0.176 -0.037,0.29 0.005,0.205 0.038,0.125 0.051,0.059 0.121,-0.177 0.045,-0.192 0,0 m 15.613,39.502 -4.841,-6.198 c 0,0 -4.251,-3.226 -5.859,-5.983 -1.882,-1.863 -3.606,-3.769 -5.306,-5.775 -1.913,-2.278 -3.73,-4.658 -5.436,-7.211 -1.669,-2.588 -3.299,-5.257 -4.523,-8.591 -0.59,-1.688 -1.157,-3.516 -1.209,-5.991 -0.011,-1.235 0.144,-2.686 0.757,-4.249 0.6,-1.563 1.787,-3.149 3.172,-4.198 l 1.063,-0.805 1.59,-0.301 c 3.203,-0.606 6.387,-0.905 9.521,-0.934 0.068,-10e-4 1.194,0.105 1.262,0.105 L 4.532,2.023 C 3.458,1.983 1.162,1.813 0.108,1.836 0.145,2.031 0.186,2.23 0.235,2.432 c 0.51,2.127 1.478,4.596 2.608,6.99 1.119,2.425 2.408,4.857 3.75,7.284 1.177,2.134 2.442,4.286 3.678,6.385 l 5.984,3.778 3.518,6.233 z"
             style="fill:#913c38;fill-opacity:1;fill-rule:nonzero;stroke:none"
             id="path536" />
        </g>
        <g
           id="g538"
           transform="translate(374.1895,266.3521)">
          <path
             d="M 0,0 C 0.153,0.767 -0.091,0.82 -0.287,0.816 -0.44,0.813 -0.923,0.441 -1.036,-0.021 c -0.929,-1.442 -2.075,-2.687 -3.592,-3.783 -0.197,-0.142 -0.39,-0.286 -0.6,-0.424 -1.924,-1.259 -3.94,-1.864 -5.894,-1.941 0.039,-0.21 0.078,-0.42 0.11,-0.63 0.076,-0.493 0.131,-0.982 0.165,-1.467 0.223,-3.19 -0.608,-6.153 -4.198,-7.847 -0.014,-0.199 -0.49,-0.407 -0.65,-0.549 -1.003,-0.892 -2.395,-2.852 -2.38,-4.549 0.011,-1.305 1.221,-2.331 2.657,-3.57 l 2.022,-1.354 2.739,0.261 c 8.412,2.47 12.334,10.156 12.154,10.724 C -0.68,-11.591 -0.65,-5.385 0,0"
             style="fill:#913c38;fill-opacity:1;fill-rule:nonzero;stroke:none"
             id="path540" />
        </g>
        <g
           id="g542"
           transform="translate(392.374,248.1313)">
          <path
             d="m 0,0 c 0,0 -0.564,0.103 -1.527,0.257 -1.992,0.319 -10.916,2.337 -15.223,2.725 -0.002,-0.003 -0.004,-0.004 -0.005,-0.007 -1.013,-2.122 -4.276,-7.323 -12.688,-9.793 l -2.081,-0.493 -1.959,1.041 c -1.436,1.24 -2.172,2.53 -2.183,3.835 -0.015,1.697 1.177,3.117 2.18,4.01 0.076,0.067 0.132,0.146 0.173,0.231 -0.018,0.242 -0.02,0.399 0.004,0.422 -0.627,-0.079 -8.601,-1.292 -9.279,-1.4 -10.381,-1.647 -22.068,-6.127 -22.068,-6.127 l 0.083,-0.718 1.445,-12.599 0.546,-4.767 c 0,0 4.009,0.447 9.251,1.373 -1.437,-12.743 -1.71,-31.201 2.657,-54.933 4.602,0.086 17.072,0.333 17.072,0.319 12.258,0.23 25.118,0.472 29.658,0.557 0.122,1.995 -0.096,6.136 -0.313,11.796 l -0.267,8.735 c -0.162,7.721 -0.128,16.981 0.564,26.929 0.108,1.565 0.237,3.149 0.38,4.745 0.002,-0.002 0.004,-0.004 0.006,-0.006 6.061,-6.557 12.132,-12.817 12.132,-12.817 l 2.864,2.762 c 3.672,1.775 6.562,4.939 9.084,8.756 l 3.367,3.245 C 23.873,-21.922 8.198,-1.378 0,0"
             style="fill:#007cff;fill-opacity:1;fill-rule:nonzero;stroke:none"
             id="path544" />
        </g>
        <g
           id="g546">
          <g
             id="g548" />
          <g
             id="g560">
            <g
               clip-path="url(#clipPath552)"
               opacity="0.300003"
               id="g558">
              <g
                 transform="translate(384.1605,229.3563)"
                 id="g556">
                <path
                   d="m 0,0 c 0.219,-2.058 0.886,-4.077 1.95,-5.895 l 2.303,-3.938 c 0.109,1.565 0.237,3.15 0.381,4.746 C 3.052,-3.376 1.472,-1.646 0,0"
                   style="fill:#000000;fill-opacity:1;fill-rule:nonzero;stroke:none"
                   id="path554" />
              </g>
            </g>
          </g>
        </g>
        <g
           id="g562">
          <g
             id="g564" />
          <g
             id="g576">
            <g
               clip-path="url(#clipPath568)"
               opacity="0.300003"
               id="g574">
              <g
                 transform="translate(388.7997,224.2635)"
                 id="g572">
                <path
                   d="M 0,0 C -0.002,0.002 -0.003,0.004 -0.005,0.006 -0.149,-1.59 -0.277,-3.175 -0.386,-4.74 l 0.002,-0.003 C -0.275,-3.18 -0.144,-1.594 0,0"
                   style="fill:#000000;fill-opacity:1;fill-rule:nonzero;stroke:none"
                   id="path570" />
              </g>
            </g>
          </g>
        </g>
        <g
           id="g578"
           transform="translate(363.0663,260.183)">
          <path
             d="M 0,0 C 0.039,-0.21 0.078,-0.421 0.111,-0.63 0.079,-0.42 0.039,-0.21 0.001,0 Z"
             style="fill:#913c38;fill-opacity:1;fill-rule:nonzero;stroke:none"
             id="path580" />
        </g>
        <g
           id="g582">
          <g
             id="g584" />
          <g
             id="g596">
            <g
               clip-path="url(#clipPath588)"
               opacity="0.199997"
               id="g594">
              <g
                 transform="translate(363.3422,258.0858)"
                 id="g592">
                <path
                   d="M 0,0 C -0.034,0.485 -0.088,0.975 -0.165,1.467 -0.09,0.975 -0.03,0.485 0,0"
                   style="fill:#000000;fill-opacity:1;fill-rule:nonzero;stroke:none"
                   id="path590" />
              </g>
            </g>
          </g>
        </g>
        <g
           id="g598"
           transform="translate(369.5609,262.5482)">
          <path
             d="m 0,0 c -0.197,-0.143 -0.389,-0.287 -0.599,-0.424 -1.925,-1.26 -3.941,-1.864 -5.895,-1.941 0.039,-0.211 0.078,-0.42 0.11,-0.631 0.077,-0.492 0.131,-0.981 0.165,-1.466 0.002,-0.029 0.009,-0.057 0.01,-0.085 C -4.059,-4.197 -1.257,-2.22 0,0"
             style="fill:#913c38;fill-opacity:1;fill-rule:nonzero;stroke:none"
             id="path600" />
        </g>
        <g
           id="g602"
           transform="translate(380.7861,249.5937)">
          <path
             d="M 0,0 C -0.18,0.809 -0.799,1.492 -1.657,1.696 L -3.735,2.191 C -4.281,2.322 -4.819,2.078 -5.1,1.608 -5.12,1.574 -5.15,1.549 -5.167,1.513 -6.18,-0.609 -9.443,-5.811 -17.855,-8.28 l -0.654,-0.156 v 10e-4 l -1.427,-0.338 -1.959,1.041 c -1.436,1.239 -2.172,2.529 -2.183,3.835 -0.015,1.696 1.177,3.117 2.18,4.009 0.076,0.067 0.245,0.287 0.287,0.372 0.09,0.229 0.072,0.344 -0.089,0.446 -2.201,1.589 -7.151,-0.863 -7.347,-1.288 -0.211,-0.204 -0.421,-0.429 -0.627,-0.676 -1.007,-1.213 -1.856,-2.958 -1.599,-5.3 0.57,-5.201 4.883,-7.662 5.066,-7.764 0.045,-0.025 0.094,-0.037 0.144,-0.037 0.055,0 0.109,0.015 0.158,0.046 0.091,0.058 0.143,0.161 0.136,0.269 -0.01,0.149 -0.193,3.617 3.702,5.511 l 1.753,-0.931 c -7.525,-30.865 -2.421,-67.851 -2.279,-68.853 0.369,0.006 0.579,0.009 0.579,0.007 0,0.014 0.012,0.023 0.01,0.037 -0.055,0.374 -5.307,37.688 2.274,68.719 l 1.837,0.435 c 2.129,-2.601 1.119,-6.461 1.108,-6.501 -0.029,-0.109 0.006,-0.226 0.092,-0.3 0.055,-0.047 0.123,-0.072 0.193,-0.072 0.04,0 0.08,0.008 0.118,0.025 0.4,0.175 9.857,4.323 13.164,8.271 1.964,2.345 2.836,4.828 3.22,6.498 C 0.079,-0.643 0.069,-0.312 0,0"
             style="fill:#ffffff;fill-opacity:1;fill-rule:nonzero;stroke:none"
             id="path604" />
        </g>
        <g
           id="g606">
          <g
             id="g608" />
          <g
             id="g620">
            <g
               clip-path="url(#clipPath612)"
               opacity="0.199997"
               id="g618">
              <g
                 transform="translate(369.5609,262.5482)"
                 id="g616">
                <path
                   d="m 0,0 c -0.197,-0.143 -0.389,-0.287 -0.599,-0.424 -1.925,-1.26 -3.941,-1.864 -5.895,-1.941 0.039,-0.211 0.078,-0.42 0.11,-0.631 0.077,-0.492 0.131,-0.981 0.165,-1.466 0.002,-0.029 0.009,-0.057 0.01,-0.085 C -4.059,-4.197 -1.257,-2.22 0,0"
                   style="fill:#000000;fill-opacity:1;fill-rule:nonzero;stroke:none"
                   id="path614" />
              </g>
            </g>
          </g>
        </g>
        <g
           id="g622"
           transform="translate(355.0103,285.8794)">
          <path
             d="M 0,0 C 1.006,1.796 2.226,3.422 3.67,4.725 2.985,5.24 2.408,5.821 1.974,6.473 0.399,5.734 -1.089,3.641 -1.861,-1.035 c -0.2,-1.209 -0.199,-2.319 -0.082,-3.348 0.303,0.88 0.647,1.748 1.034,2.592 z"
             style="fill:#1a2e35;fill-opacity:1;fill-rule:nonzero;stroke:none"
             id="path624" />
        </g>
        <g
           id="g626"
           transform="translate(373.5957,273.603)">
          <path
             d="m 0,0 c 4.513,5.223 1.643,11.875 -0.997,13.372 0.488,6.982 -9.555,7.894 -13.919,3.629 -1.444,-1.303 -2.664,-2.928 -3.669,-4.725 l -0.91,-1.79 c -0.387,-0.844 -0.731,-1.713 -1.034,-2.593 -1.161,-3.367 -1.715,-6.894 -1.7,-9.828 0.033,-6.692 5.552,-11.727 11.7,-11.485 h 10e-4 c 1.953,0.077 3.969,0.682 5.894,1.941 0.21,0.138 0.403,0.282 0.599,0.424 1.517,1.096 2.664,2.341 3.593,3.783 C 1.806,-3.679 1.22,-1.869 0,0"
             style="fill:#913c38;fill-opacity:1;fill-rule:nonzero;stroke:none"
             id="path628" />
        </g>
        <g
           id="g630"
           transform="translate(353.5526,284.6844)">
          <path
             d="m 0,0 c -0.143,-0.178 -0.114,-0.439 0.064,-0.582 0.079,-0.063 0.173,-0.093 0.267,-0.091 0.078,0.001 0.151,0.033 0.217,0.077 0.034,0.023 0.071,0.044 0.098,0.077 C 1.812,0.934 3.313,0.859 3.379,0.855 3.6,0.841 3.804,1.013 3.819,1.241 3.834,1.468 3.664,1.665 3.436,1.681 3.382,1.685 2.482,1.725 1.457,1.195 0.974,0.944 0.464,0.578 0,0"
             style="fill:#1a2e35;fill-opacity:1;fill-rule:nonzero;stroke:none"
             id="path632" />
        </g>
        <g
           id="g634"
           transform="translate(364.369,272.6956)">
          <path
             d="m 0,0 c -0.08,0.082 -0.211,0.083 -0.293,0.004 -0.019,-0.019 -1.941,-1.843 -4.972,-1.239 -0.112,0.022 -0.221,-0.051 -0.243,-0.163 -0.022,-0.112 0.05,-0.221 0.162,-0.243 0.514,-0.103 0.997,-0.141 1.447,-0.132 2.39,0.044 3.824,1.412 3.895,1.481 C 0.078,-0.213 0.08,-0.082 0,0"
             style="fill:#1a2e35;fill-opacity:1;fill-rule:nonzero;stroke:none"
             id="path636" />
        </g>
        <g
           id="g638"
           transform="translate(358.9764,279.8387)">
          <path
             d="m 0,0 c 0,0 -2.504,-3.647 -4.685,-5.213 0.956,-1.377 3.157,-1.273 3.157,-1.273 z"
             style="fill:#740606;fill-opacity:1;fill-rule:nonzero;stroke:none"
             id="path640" />
        </g>
        <g
           id="g642"
           transform="translate(355.4623,279.5955)">
          <path
             d="M 0,0 C 0.452,-0.09 0.949,0.394 1.111,1.08 1.272,1.766 1.037,2.396 0.585,2.486 0.134,2.576 -0.364,2.092 -0.525,1.406 -0.687,0.719 -0.452,0.09 0,0"
             style="fill:#1a2e35;fill-opacity:1;fill-rule:nonzero;stroke:none"
             id="path644" />
        </g>
        <g
           id="g646"
           transform="translate(363.2753,278.0389)">
          <path
             d="M 0,0 C 0.452,-0.09 0.949,0.394 1.111,1.08 1.273,1.766 1.038,2.396 0.585,2.486 0.134,2.576 -0.364,2.092 -0.525,1.406 -0.687,0.719 -0.452,0.09 0,0"
             style="fill:#1a2e35;fill-opacity:1;fill-rule:nonzero;stroke:none"
             id="path648" />
        </g>
        <g
           id="g650"
           transform="translate(373.5126,287.0009)">
          <path
             d="m 0,0 c -0.275,-0.016 -0.582,-0.025 -0.914,-0.026 -0.479,-1.109 -0.887,-2.531 -1.187,-4.346 -0.661,-4.001 0.693,-7.02 2.184,-9.026 2.051,-3.483 4.676,-3.385 6.951,-0.732 3.664,3.516 7.191,10.526 -0.094,16.031 C 5.796,0.922 3.645,0.213 0,0"
             style="fill:#1a2e35;fill-opacity:1;fill-rule:nonzero;stroke:none"
             id="path652" />
        </g>
        <g
           id="g654"
           transform="translate(378.6068,274.929)">
          <path
             d="m 0,0 c -1.652,0.677 -3.523,-0.118 -5.011,-1.326 -0.848,-0.688 -1.573,-1.508 -2.061,-2.27 -1.415,-2.21 -0.913,-4.783 1.619,-5.003 0.141,-0.012 0.284,-0.021 0.436,-0.018 0.196,0.003 0.398,0.02 0.599,0.04 1.793,0.173 3.782,0.975 5.275,2.501 1.133,1.159 1.5,2.721 1.083,4.018 C 1.659,-1.181 1.03,-0.422 0,0"
             style="fill:#913c38;fill-opacity:1;fill-rule:nonzero;stroke:none"
             id="path656" />
        </g>
        <g
           id="g658"
           transform="translate(358.6801,290.6042)">
          <path
             d="m 0,0 c 3.657,-2.754 10.317,-3.646 13.918,-3.63 0.332,0.002 0.64,0.01 0.914,0.027 3.645,0.212 5.796,0.921 6.941,1.901 C 26,1.916 16.365,9.263 16.365,9.263 c 0,0 1.074,-2.637 -1.166,-3.364 C 12.958,5.172 -2.835,11.046 -2.567,4.38 -2.526,3.394 -2.211,2.522 -1.696,1.748 -1.262,1.096 -0.685,0.515 0,0"
             style="fill:#1a2e35;fill-opacity:1;fill-rule:nonzero;stroke:none"
             id="path660" />
        </g>
        <g
           id="g662"
           transform="translate(341.7001,171.1873)">
          <path
             d="m 0,0 c 0,0 -0.27,-2.332 -0.689,-6.264 7.63,-2.58 15.794,-3.999 24.294,-3.999 8.017,0 15.739,1.253 22.992,3.558 0.108,4.746 0.173,7.583 0.173,7.583 L 17.072,0.32 16.493,0.31 Z"
             style="fill:#1a2e35;fill-opacity:1;fill-rule:nonzero;stroke:none"
             id="path664" />
        </g>
        <g
           id="g666"
           transform="translate(407.333,209.8818)">
          <path
             d="M 0,0 C -0.005,0.051 -0.02,0.105 -0.02,0.149 -0.021,0.392 0.063,0.477 0.064,0.335 0.068,0.261 0.044,0.143 0,0 m 11.687,1.574 c -0.082,0.836 -0.282,1.691 -0.578,2.494 -0.154,0.395 -0.315,0.8 -0.51,1.158 l -0.296,0.546 -0.161,0.272 c -1.42,2.464 -2.97,4.792 -4.595,7.039 L -3.537,4.326 c 1.209,-1.495 2.373,-3.005 3.455,-4.542 -0.15,-0.395 -0.408,-0.913 -0.768,-1.445 -1.188,-1.758 -2.993,-3.712 -4.951,-5.509 -3.719,-3.464 -8.036,-6.766 -12.296,-9.928 l -1.386,-0.188 -5.582,-0.758 -5.487,-3.705 3.607,-7.346 4.538,2.324 c 0,0 1.521,0.177 3.191,0.75 1.539,0.527 3.203,1.393 3.929,2.781 2.709,1.061 5.243,2.246 7.798,3.56 2.679,1.391 5.306,2.926 7.892,4.684 1.29,0.888 2.56,1.842 3.822,2.896 1.263,1.052 2.509,2.215 3.706,3.627 1.181,1.435 2.41,3.067 3.259,5.568 0.413,1.244 0.666,2.798 0.497,4.479"
             style="fill:#913c38;fill-opacity:1;fill-rule:nonzero;stroke:none"
             id="path668" />
        </g>
        <g
           id="g670"
           transform="translate(320.4234,186.3119)">
          <path
             d="m 0,0 c 0,-15.16 -12.29,-27.45 -27.45,-27.45 -15.16,0 -27.45,12.29 -27.45,27.45 0,15.16 12.29,27.45 27.45,27.45 C -12.29,27.45 0,15.16 0,0"
             style="fill:#1a2e35;fill-opacity:1;fill-rule:nonzero;stroke:none"
             id="path672" />
        </g>
        <g
           id="g674"
           transform="translate(308.0647,188.8813)">
          <path
             d="m 0,0 h -12.522 v 12.522 c 0,1.413 -1.156,2.569 -2.57,2.569 -1.413,0 -2.569,-1.156 -2.569,-2.569 V 0 h -12.522 c -1.413,0 -2.569,-1.156 -2.569,-2.569 0,-1.414 1.156,-2.57 2.569,-2.57 h 12.522 v -12.522 c 0,-1.413 1.156,-2.569 2.569,-2.569 1.414,0 2.57,1.156 2.57,2.569 V -5.139 H 0 c 1.413,0 2.57,1.156 2.57,2.57 C 2.57,-1.156 1.413,0 0,0"
             style="fill:#ffffff;fill-opacity:1;fill-rule:nonzero;stroke:none"
             id="path676" />
        </g>
        <g
           id="g678"
           transform="translate(364.7738,283.2382)">
          <path
             d="M 0,0 C 0.078,-0.011 1.536,-0.238 2.275,-1.855 2.346,-2.01 2.5,-2.1 2.659,-2.097 c 0.055,10e-4 0.111,0.013 0.164,0.037 0.208,0.096 0.3,0.341 0.205,0.549 C 2.088,0.546 0.185,0.811 0.105,0.821 -0.119,0.849 -0.329,0.689 -0.357,0.462 -0.386,0.236 -0.227,0.029 0,0"
             style="fill:#1a2e35;fill-opacity:1;fill-rule:nonzero;stroke:none"
             id="path680" />
        </g>
      </g>
    </g>
  </g>
</svg>
